<?xml version="1.0" encoding="UTF-8"?>
<!DOCTYPE svg PUBLIC "-//W3C//DTD SVG 1.1//EN" "http://www.w3.org/Graphics/SVG/1.1/DTD/svg11.dtd">
<!-- Creator: CorelDRAW X5 -->
<svg xmlns="http://www.w3.org/2000/svg" xml:space="preserve" width="34.8643mm" height="50.6029mm" shape-rendering="geometricPrecision" text-rendering="geometricPrecision" image-rendering="optimizeQuality" fill-rule="evenodd" clip-rule="evenodd"
viewBox="0 0 1275 1850"
 xmlns:xlink="http://www.w3.org/1999/xlink">
 <defs>
    <linearGradient id="id0" gradientUnits="userSpaceOnUse" x1="998.187" y1="-45.664" x2="260.502" y2="1469.23">
     <stop offset="0" stop-color="#41873F"/>
     <stop offset="0.329412" stop-color="#418B3D"/>
     <stop offset="0.639216" stop-color="#409637"/>
     <stop offset="0.929412" stop-color="#3FA92D"/>
     <stop offset="1" stop-color="#3FAE2A"/>
    </linearGradient>
    <linearGradient id="id1" gradientUnits="userSpaceOnUse" x1="-36.7821" y1="1198.87" x2="1288.28" y2="228.28">
     <stop offset="0" stop-color="#41873F"/>
     <stop offset="0.141176" stop-color="#41873F"/>
     <stop offset="0.4" stop-color="#54A044"/>
     <stop offset="0.709804" stop-color="#66B748"/>
     <stop offset="0.909804" stop-color="#6CC04A"/>
     <stop offset="1" stop-color="#6CC04A"/>
    </linearGradient>
    <linearGradient id="id2" gradientUnits="userSpaceOnUse" x1="40.4277" y1="710.429" x2="1255.1" y2="710.429">
     <stop offset="0" stop-color="#6CC04A"/>
     <stop offset="0.0901961" stop-color="#6CC04A"/>
     <stop offset="0.290196" stop-color="#66B748"/>
     <stop offset="0.6" stop-color="#54A044"/>
     <stop offset="0.858824" stop-color="#41873F"/>
     <stop offset="1" stop-color="#41873F"/>
    </linearGradient>
    <linearGradient id="id3" gradientUnits="userSpaceOnUse" x1="1271.27" y1="1079.68" x2="1274.86" y2="1079.68">
     <stop offset="0" stop-color="#6CC04A"/>
     <stop offset="0.0901961" stop-color="#6CC04A"/>
     <stop offset="0.290196" stop-color="#66B748"/>
     <stop offset="0.6" stop-color="#54A044"/>
     <stop offset="0.858824" stop-color="#41873F"/>
     <stop offset="1" stop-color="#41873F"/>
    </linearGradient>
 </defs>
<symbol id="Símbolo7" viewBox="1117 1305 1346 1794">
 <path fill="#0072C6" d="M1118 1551l0 1304c0,136 301,245 673,245l0 -1549 -673 0 0 0z"/>
 <path fill="#0072C6" d="M1781 3099l9 0c372,0 673,-110 673,-245l0 -1304 -682 0 0 1549 0 0 0 0z"/>
 <path fill="white" d="M1781 3099l9 0c372,0 673,-110 673,-245l0 -1304 -682 0 0 1549 0 0 0 0z"/>
 <path fill="white" d="M2463 1551c0,136 -301,245 -673,245 -372,0 -673,-110 -673,-245 0,-136 301,-245 673,-245 372,0 673,110 673,245z"/>
 <path fill="#7FBA00" d="M2325 1536c0,89 -240,162 -535,162 -296,0 -535,-72 -535,-162 0,-89 240,-162 535,-162 296,0 535,72 535,162z"/>
 <path fill="#B8D432" d="M2213 1635c70,-27 112,-62 112,-99 0,-89 -240,-162 -535,-162 -296,0 -535,72 -535,162 0,37 42,72 112,99 98,-38 251,-63 423,-63 172,0 325,25 423,63m0 0l0 0 0 0z"/>
 <path fill="white" d="M1577 2455c0,41 -15,72 -44,94 -29,22 -70,33 -121,33 -44,0 -80,-8 -110,-24l0 -95c34,29 72,43 112,43 20,0 35,-4 46,-12 11,-8 16,-18 16,-32 0,-13 -5,-24 -15,-34 -10,-10 -31,-22 -63,-37 -65,-31 -97,-72 -97,-125 0,-38 14,-69 43,-92 28,-23 66,-35 112,-35 41,0 76,6 103,16l0 89c-29,-20 -61,-30 -98,-30 -18,0 -33,4 -43,12 -10,7 -16,18 -16,31 0,0 0,1 0,1 0,14 4,25 13,33 9,9 26,19 53,32 40,19 68,38 85,58 17,19 25,44 25,73l0 0 0 0zm297 -323c0,50 -12,94 -34,131 -23,37 -55,63 -96,78l123 115 -124 0 -88 -99c-38,-1 -72,-12 -102,-30 -30,-19 -54,-44 -70,-77 -16,-33 -25,-69 -25,-108 0,-44 9,-84 27,-118 18,-35 43,-61 76,-80 32,-19 70,-28 111,-28 39,0 74,9 105,27 31,18 55,44 72,77 17,33 26,71 26,114l0 0 0 0zm-101 6c0,-43 -10,-77 -28,-103 -19,-25 -45,-38 -77,-38 -33,0 -60,13 -79,38 -20,25 -30,59 -30,101 0,42 10,75 29,100 19,25 45,37 78,37 33,0 59,-12 78,-36 19,-24 29,-57 29,-99l0 0 0 0zm424 211l-93 0 0 -200 96 0 0 349 157 0 -160 -149 0 0z"/>
</symbol>
<symbol id="A" viewBox="-2159 -2740 7616 10134">
 <path fill="white" stroke="black" stroke-width="125.883" stroke-linecap="round" stroke-linejoin="round" d="M-2096 -1364l0 7319c0,760 1691,1376 3777,1376l0 -8695 -3777 0z"/>
 <path fill="#0072C6" d="M1629 7331l52 0c2086,0 3777,-616 3777,-1376l0 -7319 -3828 0 0 8695 0 0z"/>
 <path fill="white" d="M1629 7331l52 0c2086,0 3777,-616 3777,-1376l0 -7319 -3828 0 0 8695 0 0z"/>
 <path fill="white" d="M5457 -1364c0,760 -1691,1376 -3777,1376 -2086,0 -3777,-616 -3777,-1376 0,-760 1691,-1376 3777,-1376 2086,0 3777,616 3777,1376z"/>
 <path fill="#7FBA00" d="M4685 -1443c0,502 -1345,908 -3004,908 -1659,0 -3005,-406 -3005,-908 0,-502 1345,-908 3005,-908 1659,0 3004,406 3004,908z"/>
 <path fill="#B8D432" d="M4055 -889c393,-153 630,-346 630,-554 0,-502 -1345,-908 -3005,-908 -1660,0 -3004,406 -3004,908 0,209 236,401 630,554 549,-215 1408,-353 2375,-353 967,0 1825,138 2375,353m0 0l0 0 0 0z"/>
 <path fill="white" d="M481 3716c0,227 -82,404 -246,528 -164,125 -390,187 -680,187 -246,0 -452,-45 -617,-134l0 -535c191,163 401,244 630,244 111,0 197,-22 257,-67 60,-45 91,-104 91,-177 0,-72 -29,-135 -87,-189 -58,-54 -176,-123 -355,-207 -364,-171 -545,-406 -545,-702 0,-215 79,-387 238,-517 159,-130 369,-195 631,-195 233,0 425,31 579,92l0 500c-161,-112 -344,-167 -548,-167 -103,0 -184,22 -244,66 -56,39 -90,103 -90,171 0,2 0,4 0,5 0,76 24,138 72,186 48,48 147,108 297,180 223,106 381,213 476,323 95,109 142,245 142,408l0 0zm1667 -1815c0,282 -64,527 -191,734 -127,207 -307,353 -538,436l691 644 -698 0 -494 -557c-212,-8 -403,-64 -573,-169 -170,-105 -301,-248 -394,-431 -92,-182 -139,-385 -139,-609 0,-248 50,-470 150,-665 100,-194 241,-344 423,-449 182,-105 390,-157 625,-157 219,0 416,51 589,152 173,101 308,246 404,433 96,187 144,400 144,637l0 0zm-565 30c0,-243 -53,-435 -158,-576 -105,-141 -249,-212 -432,-212 -186,0 -335,71 -447,212 -112,141 -168,330 -168,565 0,234 55,421 164,561 110,140 255,210 437,210 185,0 332,-68 440,-203 109,-135 163,-321 163,-557l0 0zm2378 1185l-522 0 0 -1124 537 0 0 1959 882 0 -897 -835z"/>
</symbol>
<symbol id="Símbolo6" viewBox="1117 1305 1346 1794">
 <path fill="#0078D7" d="M1851 2195c-5,-9 -14,-14 -19,-23 -10,-5 -19,-9 -28,-9 -14,0 -23,5 -33,9 -9,5 -14,14 -23,19l-14 28c-5,9 -5,23 -5,37 0,19 0,33 5,42 5,14 10,23 14,28 5,9 14,14 23,14 10,5 19,5 28,5 10,0 19,0 23,-5 10,-5 14,-9 23,-19l14 -28c5,-9 5,-23 5,-42 0,-14 0,-23 -5,-37l-10 -19 0 0 0 0zm-61 -890c-374,0 -673,126 -673,265l0 1258c0,140 304,270 673,270 374,0 673,-126 673,-265l0 -1258c5,-140 -299,-270 -673,-270zm-201 1053c0,9 -5,19 -10,28 -5,9 -10,19 -19,23 -10,9 -19,14 -28,19 -10,5 -23,9 -42,14 -14,5 -33,5 -56,5l-33 0c-10,0 -19,0 -28,-5 -10,0 -19,-5 -23,-5 -10,0 -14,-5 -19,-9l0 -98c5,5 14,9 23,14 10,5 14,9 23,14 9,5 19,5 28,9 9,5 19,5 28,5 10,0 14,0 19,-5 5,0 10,-5 10,-5 5,0 5,-5 5,-9l0 -9c0,-5 0,-9 -5,-14 -5,-5 -5,-9 -10,-9 -5,-5 -10,-5 -19,-9 -9,-5 -14,-5 -23,-9 -14,-5 -28,-14 -42,-23 -10,-9 -19,-14 -28,-23 -10,-9 -14,-19 -14,-28 -5,-9 -5,-23 -5,-33 0,-19 5,-33 10,-46 10,-14 19,-28 28,-37 14,-9 28,-19 47,-23 19,-5 37,-9 61,-9l33 0c10,0 19,0 28,5 9,0 14,5 23,5 10,0 14,5 19,5l0 93c-5,-5 -10,-5 -19,-9 -5,-5 -14,-5 -23,-9 -10,-5 -14,-5 -23,-5l-28 0c-14,0 -23,0 -28,5 -10,5 -10,9 -10,19 0,5 0,9 5,9 0,5 5,5 10,9 5,5 10,5 14,9 5,5 14,5 23,9 14,5 28,14 42,19 14,9 23,14 33,23 10,9 14,19 23,28 5,9 10,23 10,42 -6,6 -9,15 -10,23l0 0 0 -1zm285 154l-79 -84c-23,0 -47,-9 -66,-14 -19,-9 -37,-23 -51,-37 -14,-14 -28,-33 -37,-56 -10,-23 -14,-46 -14,-75 0,-28 5,-56 14,-79 10,-23 23,-42 37,-60 14,-19 37,-28 56,-37 23,-9 47,-14 75,-14 28,0 51,5 70,14 21,8 40,21 56,37 14,14 28,37 37,56 10,23 14,46 14,79 0,19 0,42 -9,56 -5,19 -14,33 -23,46 -10,14 -19,28 -33,37 -14,9 -23,19 -42,28l122 103 -126 0 0 0 0 0zm407 -536l-248 0 0 -359 107 0 0 275 126 0 0 84 14 0 0 0zm-490 -280c-266,0 -481,-65 -481,-144 0,-79 215,-144 481,-144 266,0 481,65 481,144 0,79 -215,144 -481,144l0 0z"/>
</symbol>
<symbol id="Símbolo1" viewBox="-2096 -2740 7553 10071">
 <path fill="#0072C6" d="M-2096 -1364l0 7319c0,760 1691,1376 3777,1376l0 -8695 -3777 0z"/>
 <path fill="#0072C6" d="M1629 7331l52 0c2086,0 3777,-616 3777,-1376l0 -7319 -3828 0 0 8695 0 0z"/>
 <path fill="white" d="M1629 7331l52 0c2086,0 3777,-616 3777,-1376l0 -7319 -3828 0 0 8695 0 0z"/>
 <path fill="white" d="M5457 -1364c0,760 -1691,1376 -3777,1376 -2086,0 -3777,-616 -3777,-1376 0,-760 1691,-1376 3777,-1376 2086,0 3777,616 3777,1376z"/>
 <path fill="#7FBA00" d="M4685 -1443c0,502 -1345,908 -3004,908 -1659,0 -3005,-406 -3005,-908 0,-502 1345,-908 3005,-908 1659,0 3004,406 3004,908z"/>
 <path fill="#B8D432" d="M4055 -889c393,-153 630,-346 630,-554 0,-502 -1345,-908 -3005,-908 -1660,0 -3004,406 -3004,908 0,209 236,401 630,554 549,-215 1408,-353 2375,-353 967,0 1825,138 2375,353m0 0l0 0 0 0z"/>
 <path fill="white" d="M481 3716c0,227 -82,404 -246,528 -164,125 -390,187 -680,187 -246,0 -452,-45 -617,-134l0 -535c191,163 401,244 630,244 111,0 197,-22 257,-67 60,-45 91,-104 91,-177 0,-72 -29,-135 -87,-189 -58,-54 -176,-123 -355,-207 -364,-171 -545,-406 -545,-702 0,-215 79,-387 238,-517 159,-130 369,-195 631,-195 233,0 425,31 579,92l0 500c-161,-112 -344,-167 -548,-167 -103,0 -184,22 -244,66 -56,39 -90,103 -90,171 0,2 0,4 0,5 0,76 24,138 72,186 48,48 147,108 297,180 223,106 381,213 476,323 95,109 142,245 142,408l0 0zm1667 -1815c0,282 -64,527 -191,734 -127,207 -307,353 -538,436l691 644 -698 0 -494 -557c-212,-8 -403,-64 -573,-169 -170,-105 -301,-248 -394,-431 -92,-182 -139,-385 -139,-609 0,-248 50,-470 150,-665 100,-194 241,-344 423,-449 182,-105 390,-157 625,-157 219,0 416,51 589,152 173,101 308,246 404,433 96,187 144,400 144,637l0 0zm-565 30c0,-243 -53,-435 -158,-576 -105,-141 -249,-212 -432,-212 -186,0 -335,71 -447,212 -112,141 -168,330 -168,565 0,234 55,421 164,561 110,140 255,210 437,210 185,0 332,-68 440,-203 109,-135 163,-321 163,-557l0 0zm2378 1185l-522 0 0 -1124 537 0 0 1959 882 0 -897 -835z"/>
</symbol>
<symbol id="Símbolo2" viewBox="-2096 -2740 7553 10071">
 <path fill="#0078D7" d="M2021 2256c-26,-52 -79,-78 -105,-131 -52,-26 -105,-52 -157,-52 -79,0 -131,26 -184,52 -52,26 -79,78 -131,105l-79 157c-26,52 -26,131 -26,209 0,105 0,183 26,235 26,78 52,131 79,157 26,52 79,78 131,78 52,26 105,26 157,26 52,0 105,0 131,-26 52,-26 79,-52 131,-105l79 -157c26,-52 26,-131 26,-235 0,-78 0,-131 -26,-209l-52 -105 0 0zm-341 -4996c-2098,0 -3776,706 -3776,1491l0 7063c0,785 1705,1517 3776,1517 2098,0 3776,-706 3776,-1491l0 -7063c26,-785 -1678,-1517 -3776,-1517zm-1128 5912c0,52 -26,105 -52,157 -26,52 -52,105 -105,131 -52,52 -105,78 -157,105 -52,26 -131,52 -236,79 -79,26 -184,26 -315,26l-184 0c-52,0 -105,0 -157,-26 -52,0 -105,-26 -131,-26 -52,0 -79,-26 -105,-52l0 -549c26,26 79,52 131,79 52,26 79,52 131,78 52,26 105,26 157,52 52,26 105,26 157,26 52,0 79,0 105,-26 26,0 52,-26 52,-26 26,0 26,-26 26,-52l0 -52c0,-26 0,-52 -26,-78 -26,-26 -26,-52 -52,-52 -26,-26 -52,-26 -105,-52 -52,-26 -79,-26 -131,-52 -79,-26 -157,-78 -236,-131 -52,-52 -105,-78 -157,-131 -52,-52 -79,-105 -79,-157 -26,-52 -26,-131 -26,-183 0,-105 26,-183 52,-262 52,-78 105,-157 157,-209 79,-52 157,-105 262,-131 105,-26 210,-52 341,-52l184 0c52,0 105,0 157,26 52,0 79,26 131,26 52,0 79,26 105,26l0 523c-26,-26 -52,-26 -105,-52 -26,-26 -79,-26 -131,-52 -52,-26 -79,-26 -131,-26l-157 0c-79,0 -131,0 -157,26 -52,26 -52,52 -52,105 0,26 0,52 26,52 0,26 26,26 52,52 26,26 52,26 79,52 26,26 79,26 131,52 79,26 157,78 236,105 79,52 131,79 184,131 52,52 79,105 131,157 26,52 52,131 52,235 -33,36 -51,82 -52,131l0 0zm1599 863l-446 -471c-131,0 -262,-52 -367,-78 -105,-52 -210,-131 -288,-209 -79,-78 -157,-183 -210,-314 -52,-131 -79,-262 -79,-419 0,-157 26,-314 79,-445 52,-131 131,-235 210,-340 79,-105 210,-157 315,-209 131,-52 262,-78 420,-78 157,0 288,26 393,79 118,48 225,119 315,209 79,78 157,209 210,314 52,131 79,262 79,445 0,105 0,235 -52,314 -26,105 -79,183 -131,262 -52,78 -105,157 -184,209 -79,52 -131,105 -236,157l682 575 -708 0 0 0zm2282 -3008l-1390 0 0 -2014 603 0 0 1543 708 0 0 471 79 0zm-2753 -1570c-1495,0 -2701,-366 -2701,-811 0,-445 1206,-811 2701,-811 1495,0 2701,366 2701,811 0,445 -1206,811 -2701,811l0 0z"/>
</symbol>
<symbol id="Símbolo4" viewBox="1117 1305 1346 1794">
 <path fill="#0078D7" d="M1851 2195c-5,-9 -14,-14 -19,-23 -10,-5 -19,-9 -28,-9 -14,0 -23,5 -33,9 -9,5 -14,14 -23,19l-14 28c-5,9 -5,23 -5,37 0,19 0,33 5,42 5,14 10,23 14,28 5,9 14,14 23,14 10,5 19,5 28,5 10,0 19,0 23,-5 10,-5 14,-9 23,-19l14 -28c5,-9 5,-23 5,-42 0,-14 0,-23 -5,-37l-10 -19 0 0 0 0zm-61 -890c-374,0 -673,126 -673,265l0 1258c0,140 304,270 673,270 374,0 673,-126 673,-265l0 -1258c5,-140 -299,-270 -673,-270zm-201 1053c0,9 -5,19 -10,28 -5,9 -10,19 -19,23 -10,9 -19,14 -28,19 -10,5 -23,9 -42,14 -14,5 -33,5 -56,5l-33 0c-10,0 -19,0 -28,-5 -10,0 -19,-5 -23,-5 -10,0 -14,-5 -19,-9l0 -98c5,5 14,9 23,14 10,5 14,9 23,14 9,5 19,5 28,9 9,5 19,5 28,5 10,0 14,0 19,-5 5,0 10,-5 10,-5 5,0 5,-5 5,-9l0 -9c0,-5 0,-9 -5,-14 -5,-5 -5,-9 -10,-9 -5,-5 -10,-5 -19,-9 -9,-5 -14,-5 -23,-9 -14,-5 -28,-14 -42,-23 -10,-9 -19,-14 -28,-23 -10,-9 -14,-19 -14,-28 -5,-9 -5,-23 -5,-33 0,-19 5,-33 10,-46 10,-14 19,-28 28,-37 14,-9 28,-19 47,-23 19,-5 37,-9 61,-9l33 0c10,0 19,0 28,5 9,0 14,5 23,5 10,0 14,5 19,5l0 93c-5,-5 -10,-5 -19,-9 -5,-5 -14,-5 -23,-9 -10,-5 -14,-5 -23,-5l-28 0c-14,0 -23,0 -28,5 -10,5 -10,9 -10,19 0,5 0,9 5,9 0,5 5,5 10,9 5,5 10,5 14,9 5,5 14,5 23,9 14,5 28,14 42,19 14,9 23,14 33,23 10,9 14,19 23,28 5,9 10,23 10,42 -6,6 -9,15 -10,23l0 0 0 -1zm285 154l-79 -84c-23,0 -47,-9 -66,-14 -19,-9 -37,-23 -51,-37 -14,-14 -28,-33 -37,-56 -10,-23 -14,-46 -14,-75 0,-28 5,-56 14,-79 10,-23 23,-42 37,-60 14,-19 37,-28 56,-37 23,-9 47,-14 75,-14 28,0 51,5 70,14 21,8 40,21 56,37 14,14 28,37 37,56 10,23 14,46 14,79 0,19 0,42 -9,56 -5,19 -14,33 -23,46 -10,14 -19,28 -33,37 -14,9 -23,19 -42,28l122 103 -126 0 0 0 0 0zm407 -536l-248 0 0 -359 107 0 0 275 126 0 0 84 14 0 0 0zm-490 -280c-266,0 -481,-65 -481,-144 0,-79 215,-144 481,-144 266,0 481,65 481,144 0,79 -215,144 -481,144l0 0z"/>
</symbol>
<symbol id="Símbolo3" viewBox="-2096 -2740 7553 10071">
 <path fill="#0078D7" d="M2021 2256c-26,-52 -79,-78 -105,-131 -52,-26 -105,-52 -157,-52 -79,0 -131,26 -184,52 -52,26 -79,78 -131,105l-79 157c-26,52 -26,131 -26,209 0,105 0,183 26,235 26,78 52,131 79,157 26,52 79,78 131,78 52,26 105,26 157,26 52,0 105,0 131,-26 52,-26 79,-52 131,-105l79 -157c26,-52 26,-131 26,-235 0,-78 0,-131 -26,-209l-52 -105 0 0zm-341 -4996c-2098,0 -3776,706 -3776,1491l0 7063c0,785 1705,1517 3776,1517 2098,0 3776,-706 3776,-1491l0 -7063c26,-785 -1678,-1517 -3776,-1517zm-1128 5912c0,52 -26,105 -52,157 -26,52 -52,105 -105,131 -52,52 -105,78 -157,105 -52,26 -131,52 -236,79 -79,26 -184,26 -315,26l-184 0c-52,0 -105,0 -157,-26 -52,0 -105,-26 -131,-26 -52,0 -79,-26 -105,-52l0 -549c26,26 79,52 131,79 52,26 79,52 131,78 52,26 105,26 157,52 52,26 105,26 157,26 52,0 79,0 105,-26 26,0 52,-26 52,-26 26,0 26,-26 26,-52l0 -52c0,-26 0,-52 -26,-78 -26,-26 -26,-52 -52,-52 -26,-26 -52,-26 -105,-52 -52,-26 -79,-26 -131,-52 -79,-26 -157,-78 -236,-131 -52,-52 -105,-78 -157,-131 -52,-52 -79,-105 -79,-157 -26,-52 -26,-131 -26,-183 0,-105 26,-183 52,-262 52,-78 105,-157 157,-209 79,-52 157,-105 262,-131 105,-26 210,-52 341,-52l184 0c52,0 105,0 157,26 52,0 79,26 131,26 52,0 79,26 105,26l0 523c-26,-26 -52,-26 -105,-52 -26,-26 -79,-26 -131,-52 -52,-26 -79,-26 -131,-26l-157 0c-79,0 -131,0 -157,26 -52,26 -52,52 -52,105 0,26 0,52 26,52 0,26 26,26 52,52 26,26 52,26 79,52 26,26 79,26 131,52 79,26 157,78 236,105 79,52 131,79 184,131 52,52 79,105 131,157 26,52 52,131 52,235 -33,36 -51,82 -52,131l0 0zm1599 863l-446 -471c-131,0 -262,-52 -367,-78 -105,-52 -210,-131 -288,-209 -79,-78 -157,-183 -210,-314 -52,-131 -79,-262 -79,-419 0,-157 26,-314 79,-445 52,-131 131,-235 210,-340 79,-105 210,-157 315,-209 131,-52 262,-78 420,-78 157,0 288,26 393,79 118,48 225,119 315,209 79,78 157,209 210,314 52,131 79,262 79,445 0,105 0,235 -52,314 -26,105 -79,183 -131,262 -52,78 -105,157 -184,209 -79,52 -131,105 -236,157l682 575 -708 0 0 0zm2282 -3008l-1390 0 0 -2014 603 0 0 1543 708 0 0 471 79 0zm-2753 -1570c-1495,0 -2701,-366 -2701,-811 0,-445 1206,-811 2701,-811 1495,0 2701,366 2701,811 0,445 -1206,811 -2701,811l0 0z"/>
</symbol>
<symbol id="Símbolo5" viewBox="1106 1311 1345 1791">
 <path fill="white" stroke="black" stroke-width="22.2396" stroke-linecap="round" stroke-linejoin="round" d="M1117 1554l0 1293c0,134 299,243 667,243l0 -1536 -667 0 0 0z"/>
 <path fill="#0072C6" d="M1775 3090l9 0c368,0 667,-109 667,-243l0 -1293 -676 0 0 1536 0 0 0 0z"/>
 <path fill="white" d="M1775 3090l9 0c368,0 667,-109 667,-243l0 -1293 -676 0 0 1536 0 0 0 0z"/>
 <path fill="white" d="M2451 1554c0,134 -299,243 -667,243 -368,0 -667,-109 -667,-243 0,-134 299,-243 667,-243 368,0 667,109 667,243z"/>
 <path fill="#7FBA00" d="M2315 1540c0,89 -238,160 -531,160 -293,0 -531,-72 -531,-160 0,-89 238,-160 531,-160 293,0 531,72 531,160z"/>
 <path fill="#B8D432" d="M2204 1638c69,-27 111,-61 111,-98 0,-89 -238,-160 -531,-160 -293,0 -531,72 -531,160 0,37 42,71 111,98 97,-38 249,-62 419,-62 171,0 322,24 420,62m0 0l0 0 0 0z"/>
 <path fill="white" d="M1573 2452c0,40 -15,71 -43,93 -29,22 -69,33 -120,33 -43,0 -80,-8 -109,-24l0 -95c33,29 71,43 111,43 20,0 35,-4 45,-12 11,-8 16,-18 16,-32 0,-13 -5,-24 -15,-33 -10,-9 -31,-22 -63,-37 -64,-30 -96,-72 -96,-124 0,-38 14,-69 42,-91 28,-23 65,-34 112,-34 41,0 75,6 102,16l0 88c-28,-20 -61,-30 -97,-30 -18,0 -33,4 -43,12 -10,7 -16,18 -16,30 0,0 0,1 0,1 0,13 4,24 13,33 9,9 26,19 52,32 39,19 67,38 84,57 17,19 25,43 25,72l0 0 0 0zm294 -320c0,50 -11,93 -34,130 -22,37 -54,62 -95,77l122 114 -123 0 -87 -99c-37,-1 -71,-11 -101,-30 -30,-19 -53,-44 -70,-76 -16,-32 -24,-68 -24,-108 0,-44 9,-83 26,-117 18,-34 43,-61 75,-79 32,-19 69,-28 110,-28 39,0 73,9 104,27 31,18 54,43 71,76 17,33 26,71 26,113l0 0 0 0zm-100 6c0,-43 -9,-77 -28,-102 -19,-25 -44,-37 -76,-37 -33,0 -59,13 -79,37 -20,25 -30,58 -30,100 0,41 10,74 29,99 19,25 45,37 77,37 33,0 59,-12 78,-36 19,-24 29,-57 29,-99l0 0 0 0zm420 209l-92 0 0 -199 95 0 0 346 156 0 -158 -147 0 0z"/>
</symbol>
 <g id="Capa_x0020_1">
  <metadata id="CorelCorpID_0Corel-Layer"/>
  <g id="_173320016">
   <path fill="url(#id0)" d="M663 9c-21,-12 -47,-12 -67,0l-557 323c-21,12 -33,35 -33,58l0 644c0,24 13,47 33,58l557 323c21,12 47,12 67,0l557 -323c21,-12 33,-35 33,-58l0 -644c0,-24 -13,-47 -33,-58l-557 -323z"/>
   <path fill="none" d="M596 9l-559 323c-21,12 -35,35 -36,58l0 644c0,16 6,31 18,42l626 -1074c-16,-4 -34,-3 -49,6z"/>
   <path fill="none" d="M649 1421c6,-2 11,-3 15,-6l559 -323c21,-12 35,-35 35,-58l0 -644c0,-18 -7,-35 -21,-47l-588 1078z"/>
   <path fill="url(#id1)" d="M1222 331l-560 -323c-6,-3 -12,-6 -18,-7l-628 1075c6,6 12,12 18,15l560 323c15,9 35,12 53,6l588 -1078c-3,-4 -7,-8 -13,-11z"/>
   <path fill="none" d="M1258 1034l0 -644c0,-24 -13,-47 -35,-58l-560 -323c-6,-3 -13,-6 -21,-7l613 1048c1,-4 3,-11 3,-15z"/>
   <path fill="none" d="M36 331c-21,12 -35,35 -36,58l0 644c2,24 15,47 36,58l560 323c13,7 29,11 44,9l-599 -1092 -4 0z"/>
   <path fill="url(#id2)" d="M1222 1091c16,-9 29,-24 33,-42l-613 -1048c-16,-3 -33,0 -47,7l-555 321 600 1092c9,-2 16,-4 24,-9l557 -322z"/>
   <polygon fill="url(#id3)" points="1275,1082 1271,1075 1271,1084 "/>
  </g>
  <polygon fill="#FEFEFE" fill-rule="nonzero" points="260,1848 260,1686 282,1686 366,1813 366,1686 387,1686 387,1848 365,1848 280,1721 280,1848 "/>
  <path id="1" fill="#FEFEFE" fill-rule="nonzero" d="M413 1789c0,-22 6,-38 18,-48 10,-9 22,-13 37,-13 16,0 29,5 39,16 10,11 15,25 15,44 0,15 -2,27 -7,35 -5,9 -11,15 -20,20 -9,5 -18,7 -28,7 -16,0 -30,-5 -40,-16 -10,-10 -15,-26 -15,-45zm20 0c0,15 3,26 10,34 7,7 15,11 25,11 10,0 18,-4 25,-11 6,-7 10,-19 10,-34 0,-14 -3,-25 -10,-33 -7,-7 -15,-11 -24,-11 -10,0 -18,4 -25,11 -7,7 -10,19 -10,34z"/>
  <path id="12" fill="#FEFEFE" fill-rule="nonzero" d="M621 1848l0 -15c-7,12 -18,17 -33,17 -9,0 -18,-3 -26,-8 -8,-5 -14,-12 -18,-22 -4,-9 -6,-20 -6,-32 0,-12 2,-22 6,-32 4,-9 10,-17 18,-22 8,-5 16,-8 26,-8 7,0 13,2 19,4 6,3 10,7 13,12l0 -58 20 0 0 161 -18 0zm-63 -58c0,15 3,26 9,34 6,7 14,11 22,11 9,0 16,-4 22,-11 6,-7 9,-18 9,-32 0,-16 -3,-28 -9,-35 -6,-8 -14,-11 -23,-11 -9,0 -16,4 -22,11 -6,7 -9,19 -9,34z"/>
  <path id="123" fill="#FEFEFE" fill-rule="nonzero" d="M751 1810l20 3c-3,12 -9,21 -18,28 -9,7 -20,10 -33,10 -17,0 -31,-5 -41,-16 -10,-11 -15,-25 -15,-44 0,-20 5,-35 15,-46 10,-11 23,-16 39,-16 16,0 28,5 38,16 10,11 15,26 15,45 0,1 0,3 0,5l-87 0c1,13 4,23 11,29 7,7 15,10 24,10 7,0 13,-2 19,-6 5,-4 9,-10 12,-18zm-65 -32l65 0c-1,-10 -3,-17 -7,-22 -6,-8 -14,-11 -25,-11 -9,0 -17,3 -23,9 -6,6 -10,14 -10,24z"/>
  <path id="1234" fill="#FEFEFE" fill-rule="nonzero" d="M788 1802l19 -3c0,12 3,21 7,25 4,5 10,7 17,7 5,0 10,-1 14,-4 4,-2 7,-6 8,-10 1,-4 2,-11 2,-20l0 -111 21 0 0 110c0,13 -2,24 -5,31 -3,7 -8,13 -16,17 -7,4 -15,6 -25,6 -14,0 -25,-4 -33,-12 -8,-8 -11,-20 -11,-36z"/>
  <path id="12345" fill="#FEFEFE" fill-rule="nonzero" d="M904 1796l20 -2c1,8 3,15 7,20 3,5 9,9 16,13 7,3 16,5 25,5 8,0 15,-1 22,-4 6,-2 11,-6 14,-10 3,-4 5,-9 5,-14 0,-5 -1,-9 -4,-13 -3,-4 -8,-7 -14,-10 -4,-2 -14,-4 -29,-8 -15,-4 -25,-7 -31,-10 -8,-4 -13,-9 -17,-15 -4,-6 -6,-13 -6,-20 0,-8 2,-16 7,-23 5,-7 11,-12 20,-16 9,-4 19,-5 30,-5 12,0 22,2 32,6 9,4 16,9 21,17 5,7 8,16 8,25l-20 2c-1,-10 -5,-18 -11,-23 -6,-5 -16,-8 -28,-8 -13,0 -22,2 -28,7 -6,5 -9,10 -9,17 0,6 2,11 6,14 4,4 15,8 32,11 17,4 29,7 36,10 9,4 16,10 21,16 4,7 7,14 7,23 0,9 -2,17 -7,24 -5,8 -12,13 -21,18 -9,4 -20,6 -31,6 -15,0 -27,-2 -37,-6 -10,-4 -18,-11 -23,-19 -6,-9 -9,-18 -9,-29z"/>
 </g>
</svg>
