<?xml version="1.0" encoding="UTF-8"?>
<!DOCTYPE svg PUBLIC "-//W3C//DTD SVG 1.1//EN" "http://www.w3.org/Graphics/SVG/1.1/DTD/svg11.dtd">
<!-- Creator: CorelDRAW X5 -->
<svg xmlns="http://www.w3.org/2000/svg" xml:space="preserve" width="36.7961mm" height="51.1764mm" shape-rendering="geometricPrecision" text-rendering="geometricPrecision" image-rendering="optimizeQuality" fill-rule="evenodd" clip-rule="evenodd"
viewBox="0 0 603 839"
 xmlns:xlink="http://www.w3.org/1999/xlink">
 <defs>
   <linearGradient id="id0" gradientUnits="userSpaceOnUse" x1="-21.7304" y1="147.087" x2="624.833" y2="491.311">
    <stop offset="0" stop-color="#E40035"/>
    <stop offset="0.239216" stop-color="#F60A48"/>
    <stop offset="0.34902" stop-color="#F20755"/>
    <stop offset="0.490196" stop-color="#DC087D"/>
    <stop offset="0.74902" stop-color="#9717E7"/>
    <stop offset="1" stop-color="#6C00F5"/>
   </linearGradient>
   <mask id="id1">
     <linearGradient id="id2" gradientUnits="userSpaceOnUse" x1="19.9635" y1="679.187" x2="583.141" y2="-40.7875">
      <stop offset="0" stop-opacity="1" stop-color="white"/>
      <stop offset="1" stop-opacity="0" stop-color="white"/>
     </linearGradient>
    <rect fill="url(#id2)" x="-1" y="-26" width="604" height="690"/>
   </mask>
   <linearGradient id="id3" gradientUnits="userSpaceOnUse" x1="31.2286" y1="664.787" x2="571.876" y2="-26.3869">
    <stop offset="0" stop-color="#FF31D9"/>
    <stop offset="1" stop-color="#FF5BE1"/>
   </linearGradient>
 </defs>
<symbol id="Símbolo7" viewBox="1559 585 603 804">
 <path fill="#0072C6" d="M1559 695l0 584c0,61 135,110 302,110l0 -694 -302 0 0 0z"/>
 <path fill="#0072C6" d="M1857 1389l4 0c167,0 302,-49 302,-110l0 -584 -306 0 0 694 0 0 0 0z"/>
 <path fill="white" d="M1857 1389l4 0c167,0 302,-49 302,-110l0 -584 -306 0 0 694 0 0 0 0z"/>
 <path fill="white" d="M2162 695c0,61 -135,110 -302,110 -167,0 -302,-49 -302,-110 0,-61 135,-110 302,-110 167,0 302,49 302,110z"/>
 <path fill="#7FBA00" d="M2101 689c0,40 -107,72 -240,72 -133,0 -240,-32 -240,-72 0,-40 107,-72 240,-72 133,0 240,32 240,72z"/>
 <path fill="#B8D432" d="M2051 733c31,-12 50,-28 50,-44 0,-40 -107,-72 -240,-72 -133,0 -240,32 -240,72 0,17 19,32 50,44 44,-17 112,-28 190,-28 77,0 146,11 190,28m0 0l0 0 0 0z"/>
 <path fill="white" d="M1765 1101c0,18 -7,32 -20,42 -13,10 -31,15 -54,15 -20,0 -36,-4 -49,-11l0 -43c15,13 32,19 50,19 9,0 16,-2 20,-5 5,-4 7,-8 7,-14 0,-6 -2,-11 -7,-15 -5,-4 -14,-10 -28,-17 -29,-14 -43,-32 -43,-56 0,-17 6,-31 19,-41 13,-10 29,-15 50,-15 19,0 34,2 46,7l0 40c-13,-9 -27,-13 -44,-13 -8,0 -15,2 -19,5 -4,3 -7,8 -7,14 0,0 0,0 0,0 0,6 2,11 6,15 4,4 12,9 24,14 18,9 30,17 38,26 8,9 11,20 11,33l0 0 0 0zm133 -145c0,22 -5,42 -15,59 -10,17 -25,28 -43,35l55 51 -56 0 -39 -45c-17,-1 -32,-5 -46,-14 -14,-8 -24,-20 -32,-34 -7,-15 -11,-31 -11,-49 0,-20 4,-38 12,-53 8,-15 19,-27 34,-36 14,-8 31,-12 50,-12 17,0 33,4 47,12 14,8 25,20 32,35 8,15 12,32 12,51l0 0 0 0zm-45 2c0,-19 -4,-35 -13,-46 -8,-11 -20,-17 -35,-17 -15,0 -27,6 -36,17 -9,11 -13,26 -13,45 0,19 4,34 13,45 9,11 20,17 35,17 15,0 27,-5 35,-16 9,-11 13,-26 13,-45l0 0 0 0zm190 95l-42 0 0 -90 43 0 0 156 71 0 -72 -67 0 0z"/>
</symbol>
<symbol id="A" viewBox="91 -1228 3414 4542">
 <path fill="white" stroke="black" stroke-width="56.4256" stroke-linecap="round" stroke-linejoin="round" d="M119 -611l0 3281c0,341 758,617 1693,617l0 -3897 -1693 0z"/>
 <path fill="#0072C6" d="M1788 3286l23 0c935,0 1693,-276 1693,-617l0 -3281 -1716 0 0 3897 0 0z"/>
 <path fill="white" d="M1788 3286l23 0c935,0 1693,-276 1693,-617l0 -3281 -1716 0 0 3897 0 0z"/>
 <path fill="white" d="M3504 -611c0,341 -758,617 -1693,617 -935,0 -1693,-276 -1693,-617 0,-341 758,-617 1693,-617 935,0 1693,276 1693,617z"/>
 <path fill="#7FBA00" d="M3158 -647c0,225 -603,407 -1347,407 -744,0 -1347,-182 -1347,-407 0,-225 603,-407 1347,-407 744,0 1347,182 1347,407z"/>
 <path fill="#B8D432" d="M2876 -398c176,-69 282,-155 282,-248 0,-225 -603,-407 -1347,-407 -744,0 -1347,182 -1347,407 0,94 106,180 282,248 246,-96 631,-158 1064,-158 434,0 818,62 1065,158m0 0l0 0 0 0z"/>
 <path fill="white" d="M1274 1666c0,102 -37,181 -110,237 -74,56 -175,84 -305,84 -110,0 -202,-20 -276,-60l0 -240c85,73 180,109 282,109 50,0 88,-10 115,-30 27,-20 41,-46 41,-80 0,-32 -13,-61 -39,-85 -26,-24 -79,-55 -159,-93 -163,-77 -244,-182 -244,-315 0,-96 35,-174 107,-232 71,-58 165,-87 283,-87 104,0 191,14 259,41l0 224c-72,-50 -154,-75 -246,-75 -46,0 -83,10 -109,30 -25,17 -40,46 -40,77 0,1 0,2 0,2 0,34 11,62 32,84 22,22 66,49 133,81 100,48 171,96 214,145 43,49 63,110 63,183l0 0zm747 -813c0,126 -29,236 -86,329 -57,93 -138,158 -241,196l310 289 -313 0 -221 -250c-95,-3 -180,-29 -257,-76 -76,-47 -135,-111 -177,-193 -41,-82 -62,-173 -62,-273 0,-111 22,-211 67,-298 45,-87 108,-154 190,-201 81,-47 175,-70 280,-70 98,0 186,23 264,68 78,45 138,110 181,194 43,84 65,179 65,286l0 0zm-253 14c0,-109 -24,-195 -71,-258 -47,-63 -112,-95 -194,-95 -83,0 -150,32 -200,95 -50,63 -75,148 -75,253 0,105 25,189 74,251 49,63 114,94 196,94 83,0 149,-30 197,-91 49,-61 73,-144 73,-250l0 0zm1066 531l-234 0 0 -504 241 0 0 878 396 0 -402 -374z"/>
</symbol>
<symbol id="Símbolo6" viewBox="1559 585 603 804">
 <path fill="#0078D7" d="M1888 984c-2,-4 -6,-6 -8,-11 -4,-2 -8,-4 -13,-4 -6,0 -11,2 -15,4 -4,2 -6,6 -11,8l-6 12c-2,4 -2,11 -2,17 0,8 0,15 2,19 2,6 4,11 6,12 2,4 6,6 11,6 4,2 8,2 13,2 4,0 8,0 11,-2 4,-2 6,-4 11,-8l6 -12c2,-4 2,-11 2,-19 0,-6 0,-11 -2,-17l-4 -8 0 0 0 0zm-27 -399c-167,0 -302,56 -302,119l0 564c0,63 136,121 302,121 167,0 302,-56 302,-119l0 -564c2,-63 -134,-121 -302,-121zm-90 472c0,4 -2,8 -4,12 -2,4 -4,8 -8,11 -4,4 -8,6 -13,8 -4,2 -11,4 -19,6 -6,2 -15,2 -25,2l-15 0c-4,0 -8,0 -13,-2 -4,0 -8,-2 -11,-2 -4,0 -6,-2 -8,-4l0 -44c2,2 6,4 11,6 4,2 6,4 11,6 4,2 8,2 13,4 4,2 8,2 13,2 4,0 6,0 8,-2 2,0 4,-2 4,-2 2,0 2,-2 2,-4l0 -4c0,-2 0,-4 -2,-6 -2,-2 -2,-4 -4,-4 -2,-2 -4,-2 -8,-4 -4,-2 -6,-2 -11,-4 -6,-2 -13,-6 -19,-11 -4,-4 -8,-6 -13,-11 -4,-4 -6,-8 -6,-12 -2,-4 -2,-11 -2,-15 0,-8 2,-15 4,-21 4,-6 8,-12 13,-17 6,-4 13,-8 21,-11 8,-2 17,-4 27,-4l15 0c4,0 8,0 13,2 4,0 6,2 11,2 4,0 6,2 8,2l0 42c-2,-2 -4,-2 -8,-4 -2,-2 -6,-2 -11,-4 -4,-2 -6,-2 -11,-2l-13 0c-6,0 -11,0 -13,2 -4,2 -4,4 -4,8 0,2 0,4 2,4 0,2 2,2 4,4 2,2 4,2 6,4 2,2 6,2 11,4 6,2 13,6 19,8 6,4 11,6 15,11 4,4 6,8 11,12 2,4 4,11 4,19 -3,3 -4,7 -4,11l0 0 0 -1zm128 69l-36 -38c-11,0 -21,-4 -29,-6 -8,-4 -17,-11 -23,-17 -6,-6 -13,-15 -17,-25 -4,-11 -6,-21 -6,-33 0,-12 2,-25 6,-35 4,-11 11,-19 17,-27 6,-8 17,-12 25,-17 11,-4 21,-6 33,-6 13,0 23,2 31,6 9,4 18,9 25,17 6,6 13,17 17,25 4,11 6,21 6,35 0,8 0,19 -4,25 -2,8 -6,15 -11,21 -4,6 -8,12 -15,17 -6,4 -11,8 -19,12l55 46 -56 0 0 0 0 0zm182 -240l-111 0 0 -161 48 0 0 123 56 0 0 38 6 0 0 0zm-220 -125c-119,0 -216,-29 -216,-65 0,-35 96,-65 216,-65 119,0 216,29 216,65 0,35 -96,65 -216,65l0 0z"/>
</symbol>
<symbol id="Símbolo1" viewBox="119 -1228 3386 4514">
 <path fill="#0072C6" d="M119 -611l0 3281c0,341 758,617 1693,617l0 -3897 -1693 0z"/>
 <path fill="#0072C6" d="M1788 3286l23 0c935,0 1693,-276 1693,-617l0 -3281 -1716 0 0 3897 0 0z"/>
 <path fill="white" d="M1788 3286l23 0c935,0 1693,-276 1693,-617l0 -3281 -1716 0 0 3897 0 0z"/>
 <path fill="white" d="M3504 -611c0,341 -758,617 -1693,617 -935,0 -1693,-276 -1693,-617 0,-341 758,-617 1693,-617 935,0 1693,276 1693,617z"/>
 <path fill="#7FBA00" d="M3158 -647c0,225 -603,407 -1347,407 -744,0 -1347,-182 -1347,-407 0,-225 603,-407 1347,-407 744,0 1347,182 1347,407z"/>
 <path fill="#B8D432" d="M2876 -398c176,-69 282,-155 282,-248 0,-225 -603,-407 -1347,-407 -744,0 -1347,182 -1347,407 0,94 106,180 282,248 246,-96 631,-158 1064,-158 434,0 818,62 1065,158m0 0l0 0 0 0z"/>
 <path fill="white" d="M1274 1666c0,102 -37,181 -110,237 -74,56 -175,84 -305,84 -110,0 -202,-20 -276,-60l0 -240c85,73 180,109 282,109 50,0 88,-10 115,-30 27,-20 41,-46 41,-80 0,-32 -13,-61 -39,-85 -26,-24 -79,-55 -159,-93 -163,-77 -244,-182 -244,-315 0,-96 35,-174 107,-232 71,-58 165,-87 283,-87 104,0 191,14 259,41l0 224c-72,-50 -154,-75 -246,-75 -46,0 -83,10 -109,30 -25,17 -40,46 -40,77 0,1 0,2 0,2 0,34 11,62 32,84 22,22 66,49 133,81 100,48 171,96 214,145 43,49 63,110 63,183l0 0zm747 -813c0,126 -29,236 -86,329 -57,93 -138,158 -241,196l310 289 -313 0 -221 -250c-95,-3 -180,-29 -257,-76 -76,-47 -135,-111 -177,-193 -41,-82 -62,-173 -62,-273 0,-111 22,-211 67,-298 45,-87 108,-154 190,-201 81,-47 175,-70 280,-70 98,0 186,23 264,68 78,45 138,110 181,194 43,84 65,179 65,286l0 0zm-253 14c0,-109 -24,-195 -71,-258 -47,-63 -112,-95 -194,-95 -83,0 -150,32 -200,95 -50,63 -75,148 -75,253 0,105 25,189 74,251 49,63 114,94 196,94 83,0 149,-30 197,-91 49,-61 73,-144 73,-250l0 0zm1066 531l-234 0 0 -504 241 0 0 878 396 0 -402 -374z"/>
</symbol>
<symbol id="Símbolo2" viewBox="119 -1228 3386 4514">
 <path fill="#0078D7" d="M1964 1011c-12,-23 -35,-35 -47,-59 -24,-12 -47,-23 -71,-23 -35,0 -59,12 -82,23 -23,12 -35,35 -59,47l-35 70c-12,23 -12,59 -12,94 0,47 0,82 12,106 12,35 24,59 35,70 12,23 35,35 59,35 24,12 47,12 71,12 24,0 47,0 59,-12 24,-12 35,-23 59,-47l35 -70c12,-23 12,-59 12,-106 0,-35 0,-59 -12,-94l-24 -47 0 0zm-153 -2239c-940,0 -1693,317 -1693,668l0 3166c0,352 764,680 1693,680 940,0 1693,-317 1693,-668l0 -3166c12,-352 -752,-680 -1693,-680zm-505 2650c0,23 -12,47 -24,70 -12,23 -24,47 -47,59 -24,23 -47,35 -71,47 -24,12 -59,23 -106,35 -35,12 -82,12 -141,12l-82 0c-24,0 -47,0 -71,-12 -24,0 -47,-12 -59,-12 -24,0 -35,-12 -47,-23l0 -246c12,12 35,23 59,35 24,12 35,23 59,35 23,12 47,12 71,23 23,12 47,12 71,12 24,0 35,0 47,-12 12,0 24,-12 24,-12 12,0 12,-12 12,-23l0 -23c0,-12 0,-23 -12,-35 -12,-12 -12,-23 -24,-23 -12,-12 -24,-12 -47,-23 -23,-12 -35,-12 -59,-23 -35,-12 -71,-35 -106,-59 -24,-23 -47,-35 -71,-59 -24,-23 -35,-47 -35,-70 -12,-23 -12,-59 -12,-82 0,-47 12,-82 24,-117 24,-35 47,-70 71,-94 35,-23 71,-47 118,-59 47,-12 94,-23 153,-23l82 0c24,0 47,0 71,12 23,0 35,12 59,12 24,0 35,12 47,12l0 235c-12,-12 -24,-12 -47,-23 -12,-12 -35,-12 -59,-23 -24,-12 -35,-12 -59,-12l-71 0c-35,0 -59,0 -71,12 -24,12 -24,23 -24,47 0,12 0,23 12,23 0,12 12,12 24,23 12,12 24,12 35,23 12,12 35,12 59,23 35,12 71,35 106,47 35,23 59,35 82,59 24,23 35,47 59,70 12,23 24,59 24,106 -15,16 -23,37 -24,59l0 0zm717 387l-200 -211c-59,0 -118,-23 -165,-35 -47,-23 -94,-59 -129,-94 -35,-35 -71,-82 -94,-141 -24,-59 -35,-117 -35,-188 0,-70 12,-141 35,-199 24,-59 59,-106 94,-152 35,-47 94,-70 141,-94 59,-23 118,-35 188,-35 71,0 129,12 176,35 53,21 101,53 141,94 35,35 71,94 94,141 24,59 35,117 35,199 0,47 0,106 -23,141 -12,47 -35,82 -59,117 -24,35 -47,70 -82,94 -35,23 -59,47 -106,70l306 258 -317 0 0 0zm1023 -1348l-623 0 0 -903 270 0 0 692 317 0 0 211 35 0zm-1234 -704c-670,0 -1211,-164 -1211,-363 0,-199 541,-363 1211,-363 670,0 1211,164 1211,363 0,199 -541,363 -1211,363l0 0z"/>
</symbol>
<symbol id="Símbolo4" viewBox="1559 585 603 804">
 <path fill="#0078D7" d="M1888 984c-2,-4 -6,-6 -8,-11 -4,-2 -8,-4 -13,-4 -6,0 -11,2 -15,4 -4,2 -6,6 -11,8l-6 12c-2,4 -2,11 -2,17 0,8 0,15 2,19 2,6 4,11 6,12 2,4 6,6 11,6 4,2 8,2 13,2 4,0 8,0 11,-2 4,-2 6,-4 11,-8l6 -12c2,-4 2,-11 2,-19 0,-6 0,-11 -2,-17l-4 -8 0 0 0 0zm-27 -399c-167,0 -302,56 -302,119l0 564c0,63 136,121 302,121 167,0 302,-56 302,-119l0 -564c2,-63 -134,-121 -302,-121zm-90 472c0,4 -2,8 -4,12 -2,4 -4,8 -8,11 -4,4 -8,6 -13,8 -4,2 -11,4 -19,6 -6,2 -15,2 -25,2l-15 0c-4,0 -8,0 -13,-2 -4,0 -8,-2 -11,-2 -4,0 -6,-2 -8,-4l0 -44c2,2 6,4 11,6 4,2 6,4 11,6 4,2 8,2 13,4 4,2 8,2 13,2 4,0 6,0 8,-2 2,0 4,-2 4,-2 2,0 2,-2 2,-4l0 -4c0,-2 0,-4 -2,-6 -2,-2 -2,-4 -4,-4 -2,-2 -4,-2 -8,-4 -4,-2 -6,-2 -11,-4 -6,-2 -13,-6 -19,-11 -4,-4 -8,-6 -13,-11 -4,-4 -6,-8 -6,-12 -2,-4 -2,-11 -2,-15 0,-8 2,-15 4,-21 4,-6 8,-12 13,-17 6,-4 13,-8 21,-11 8,-2 17,-4 27,-4l15 0c4,0 8,0 13,2 4,0 6,2 11,2 4,0 6,2 8,2l0 42c-2,-2 -4,-2 -8,-4 -2,-2 -6,-2 -11,-4 -4,-2 -6,-2 -11,-2l-13 0c-6,0 -11,0 -13,2 -4,2 -4,4 -4,8 0,2 0,4 2,4 0,2 2,2 4,4 2,2 4,2 6,4 2,2 6,2 11,4 6,2 13,6 19,8 6,4 11,6 15,11 4,4 6,8 11,12 2,4 4,11 4,19 -3,3 -4,7 -4,11l0 0 0 -1zm128 69l-36 -38c-11,0 -21,-4 -29,-6 -8,-4 -17,-11 -23,-17 -6,-6 -13,-15 -17,-25 -4,-11 -6,-21 -6,-33 0,-12 2,-25 6,-35 4,-11 11,-19 17,-27 6,-8 17,-12 25,-17 11,-4 21,-6 33,-6 13,0 23,2 31,6 9,4 18,9 25,17 6,6 13,17 17,25 4,11 6,21 6,35 0,8 0,19 -4,25 -2,8 -6,15 -11,21 -4,6 -8,12 -15,17 -6,4 -11,8 -19,12l55 46 -56 0 0 0 0 0zm182 -240l-111 0 0 -161 48 0 0 123 56 0 0 38 6 0 0 0zm-220 -125c-119,0 -216,-29 -216,-65 0,-35 96,-65 216,-65 119,0 216,29 216,65 0,35 -96,65 -216,65l0 0z"/>
</symbol>
<symbol id="Símbolo3" viewBox="119 -1228 3386 4514">
 <path fill="#0078D7" d="M1964 1011c-12,-23 -35,-35 -47,-59 -24,-12 -47,-23 -71,-23 -35,0 -59,12 -82,23 -23,12 -35,35 -59,47l-35 70c-12,23 -12,59 -12,94 0,47 0,82 12,106 12,35 24,59 35,70 12,23 35,35 59,35 24,12 47,12 71,12 24,0 47,0 59,-12 24,-12 35,-23 59,-47l35 -70c12,-23 12,-59 12,-106 0,-35 0,-59 -12,-94l-24 -47 0 0zm-153 -2239c-940,0 -1693,317 -1693,668l0 3166c0,352 764,680 1693,680 940,0 1693,-317 1693,-668l0 -3166c12,-352 -752,-680 -1693,-680zm-505 2650c0,23 -12,47 -24,70 -12,23 -24,47 -47,59 -24,23 -47,35 -71,47 -24,12 -59,23 -106,35 -35,12 -82,12 -141,12l-82 0c-24,0 -47,0 -71,-12 -24,0 -47,-12 -59,-12 -24,0 -35,-12 -47,-23l0 -246c12,12 35,23 59,35 24,12 35,23 59,35 23,12 47,12 71,23 23,12 47,12 71,12 24,0 35,0 47,-12 12,0 24,-12 24,-12 12,0 12,-12 12,-23l0 -23c0,-12 0,-23 -12,-35 -12,-12 -12,-23 -24,-23 -12,-12 -24,-12 -47,-23 -23,-12 -35,-12 -59,-23 -35,-12 -71,-35 -106,-59 -24,-23 -47,-35 -71,-59 -24,-23 -35,-47 -35,-70 -12,-23 -12,-59 -12,-82 0,-47 12,-82 24,-117 24,-35 47,-70 71,-94 35,-23 71,-47 118,-59 47,-12 94,-23 153,-23l82 0c24,0 47,0 71,12 23,0 35,12 59,12 24,0 35,12 47,12l0 235c-12,-12 -24,-12 -47,-23 -12,-12 -35,-12 -59,-23 -24,-12 -35,-12 -59,-12l-71 0c-35,0 -59,0 -71,12 -24,12 -24,23 -24,47 0,12 0,23 12,23 0,12 12,12 24,23 12,12 24,12 35,23 12,12 35,12 59,23 35,12 71,35 106,47 35,23 59,35 82,59 24,23 35,47 59,70 12,23 24,59 24,106 -15,16 -23,37 -24,59l0 0zm717 387l-200 -211c-59,0 -118,-23 -165,-35 -47,-23 -94,-59 -129,-94 -35,-35 -71,-82 -94,-141 -24,-59 -35,-117 -35,-188 0,-70 12,-141 35,-199 24,-59 59,-106 94,-152 35,-47 94,-70 141,-94 59,-23 118,-35 188,-35 71,0 129,12 176,35 53,21 101,53 141,94 35,35 71,94 94,141 24,59 35,117 35,199 0,47 0,106 -23,141 -12,47 -35,82 -59,117 -24,35 -47,70 -82,94 -35,23 -59,47 -106,70l306 258 -317 0 0 0zm1023 -1348l-623 0 0 -903 270 0 0 692 317 0 0 211 35 0zm-1234 -704c-670,0 -1211,-164 -1211,-363 0,-199 541,-363 1211,-363 670,0 1211,164 1211,363 0,199 -541,363 -1211,363l0 0z"/>
</symbol>
<symbol id="Símbolo5" viewBox="1554 588 603 803">
 <path fill="white" stroke="black" stroke-width="9.96864" stroke-linecap="round" stroke-linejoin="round" d="M1559 697l0 580c0,60 134,109 299,109l0 -688 -299 0 0 0z"/>
 <path fill="#0072C6" d="M1854 1385l4 0c165,0 299,-49 299,-109l0 -580 -303 0 0 688 0 0 0 0z"/>
 <path fill="white" d="M1854 1385l4 0c165,0 299,-49 299,-109l0 -580 -303 0 0 688 0 0 0 0z"/>
 <path fill="white" d="M2157 697c0,60 -134,109 -299,109 -165,0 -299,-49 -299,-109 0,-60 134,-109 299,-109 165,0 299,49 299,109z"/>
 <path fill="#7FBA00" d="M2096 690c0,40 -107,72 -238,72 -131,0 -238,-32 -238,-72 0,-40 107,-72 238,-72 131,0 238,32 238,72z"/>
 <path fill="#B8D432" d="M2046 734c31,-12 50,-27 50,-44 0,-40 -107,-72 -238,-72 -131,0 -238,32 -238,72 0,17 19,32 50,44 43,-17 111,-28 188,-28 77,0 145,11 188,28m0 0l0 0 0 0z"/>
 <path fill="white" d="M1763 1099c0,18 -7,32 -19,42 -13,10 -31,15 -54,15 -19,0 -36,-4 -49,-11l0 -42c15,13 32,19 50,19 9,0 16,-2 20,-5 5,-4 7,-8 7,-14 0,-6 -2,-11 -7,-15 -5,-4 -14,-10 -28,-16 -29,-14 -43,-32 -43,-56 0,-17 6,-31 19,-41 13,-10 29,-15 50,-15 18,0 34,2 46,7l0 40c-13,-9 -27,-13 -43,-13 -8,0 -15,2 -19,5 -4,3 -7,8 -7,14 0,0 0,0 0,0 0,6 2,11 6,15 4,4 12,9 23,14 18,8 30,17 38,26 8,9 11,19 11,32l0 0 0 0zm132 -144c0,22 -5,42 -15,58 -10,16 -24,28 -43,35l55 51 -55 0 -39 -44c-17,-1 -32,-5 -45,-13 -13,-8 -24,-20 -31,-34 -7,-14 -11,-31 -11,-48 0,-20 4,-37 12,-53 8,-15 19,-27 34,-36 14,-8 31,-12 49,-12 17,0 33,4 47,12 14,8 24,19 32,34 8,15 11,32 11,51l0 0 0 0zm-45 2c0,-19 -4,-34 -13,-46 -8,-11 -20,-17 -34,-17 -15,0 -26,6 -35,17 -9,11 -13,26 -13,45 0,19 4,33 13,44 9,11 20,17 35,17 15,0 26,-5 35,-16 9,-11 13,-25 13,-44l0 0 0 0zm188 94l-41 0 0 -89 43 0 0 155 70 0 -71 -66 0 0z"/>
</symbol>
 <g id="Capa_x0020_1">
  <metadata id="CorelCorpID_0Corel-Layer"/>
  <path fill="url(#id0)" d="M603 106l-22 342 -208 -448 230 106zm-144 442l-157 90 -157 -90 32 -78 251 0 32 78zm-157 -378l82 200 -165 0 82 -200zm-280 278l-22 -342 230 -106 -208 448z"/>
  <path fill="url(#id3)" mask="url(#id1)" d="M603 106l-22 342 -208 -448 230 106zm-144 442l-157 90 -157 -90 32 -78 251 0 32 78zm-157 -378l82 200 -165 0 82 -200zm-280 278l-22 -342 230 -106 -208 448z"/>
  <path fill="#FEFEFE" fill-rule="nonzero" d="M127 818l28 -72 10 0 30 72 -11 0 -8 -22 -30 0 -8 22 -10 0zm21 -30l25 0 -8 -20c-2,-6 -4,-11 -5,-15 -1,5 -2,9 -4,14l-8 21z"/>
  <path id="1" fill="#FEFEFE" fill-rule="nonzero" d="M201 818l0 -52 8 0 0 7c4,-6 9,-9 17,-9 3,0 6,1 9,2 3,1 5,3 6,4 1,2 2,4 3,7 0,2 0,5 0,9l0 32 -9 0 0 -32c0,-4 0,-6 -1,-8 -1,-2 -2,-3 -4,-4 -2,-1 -4,-2 -6,-2 -4,0 -7,1 -10,4 -3,2 -4,7 -4,14l0 29 -9 0z"/>
  <path id="12" fill="#FEFEFE" fill-rule="nonzero" d="M255 822l9 1c0,3 1,5 3,6 2,2 5,2 9,2 4,0 7,-1 10,-2 2,-2 4,-4 5,-7 0,-2 1,-6 1,-11 -4,5 -9,7 -14,7 -7,0 -13,-3 -17,-8 -4,-5 -6,-11 -6,-19 0,-5 1,-10 3,-14 2,-4 4,-7 8,-10 3,-2 7,-3 12,-3 6,0 11,3 15,8l0 -6 8 0 0 45c0,8 -1,14 -2,17 -2,3 -4,6 -8,8 -4,2 -8,3 -13,3 -6,0 -11,-1 -15,-4 -4,-3 -6,-7 -6,-13zm7 -31c0,7 1,12 4,15 3,3 6,5 10,5 4,0 7,-2 10,-5 3,-3 4,-8 4,-15 0,-6 -1,-11 -4,-14 -3,-3 -6,-5 -10,-5 -4,0 -7,2 -10,5 -3,3 -4,8 -4,14z"/>
  <path id="123" fill="#FEFEFE" fill-rule="nonzero" d="M348 818l0 -8c-4,6 -10,9 -17,9 -3,0 -6,-1 -9,-2 -3,-1 -5,-3 -6,-4 -1,-2 -2,-4 -3,-7 0,-2 -1,-5 -1,-8l0 -32 9 0 0 29c0,5 0,8 1,9 1,2 2,4 4,6 2,1 4,2 7,2 3,0 5,-1 7,-2 2,-1 4,-3 5,-6 1,-2 1,-6 1,-10l0 -28 9 0 0 52 -8 0z"/>
  <polygon id="1234" fill="#FEFEFE" fill-rule="nonzero" points="369,818 369,745 378,745 378,818 "/>
  <path id="12345" fill="#FEFEFE" fill-rule="nonzero" d="M426 811c-3,3 -6,5 -9,6 -3,1 -6,2 -10,2 -6,0 -10,-1 -13,-4 -3,-3 -5,-6 -5,-11 0,-3 1,-5 2,-7 1,-2 3,-4 5,-5 2,-1 4,-2 6,-3 2,0 4,-1 8,-1 7,-1 12,-2 16,-3 0,-1 0,-2 0,-2 0,-4 -1,-6 -3,-8 -2,-2 -6,-3 -10,-3 -4,0 -7,1 -9,2 -2,1 -3,4 -4,8l-9 -1c1,-4 2,-7 4,-9 2,-2 4,-4 8,-5 3,-1 7,-2 12,-2 4,0 8,1 11,2 3,1 5,2 6,4 1,2 2,4 3,6 0,2 0,4 0,8l0 12c0,8 0,13 1,16 0,2 1,4 2,6l-9 0c-1,-2 -2,-4 -2,-6zm-1 -20c-3,1 -8,2 -14,3 -4,1 -6,1 -8,2 -2,1 -3,2 -4,3 -1,1 -1,3 -1,4 0,2 1,4 3,6 2,2 4,2 8,2 3,0 6,-1 9,-2 3,-1 5,-4 6,-6 1,-2 1,-5 1,-9l0 -3z"/>
  <path id="123456" fill="#FEFEFE" fill-rule="nonzero" d="M448 818l0 -52 8 0 0 8c2,-4 4,-6 6,-7 2,-1 4,-2 6,-2 3,0 6,1 9,3l-3 8c-2,-1 -4,-2 -6,-2 -2,0 -4,1 -5,2 -2,1 -3,3 -3,5 -1,3 -1,7 -1,10l0 27 -9 0z"/>
 </g>
</svg>
