<?xml version="1.0" encoding="UTF-8"?>
<!DOCTYPE svg PUBLIC "-//W3C//DTD SVG 1.1//EN" "http://www.w3.org/Graphics/SVG/1.1/DTD/svg11.dtd">
<!-- Creator: CorelDRAW X5 -->
<svg xmlns="http://www.w3.org/2000/svg" xml:space="preserve" width="38.9495mm" height="48.6532mm" shape-rendering="geometricPrecision" text-rendering="geometricPrecision" image-rendering="optimizeQuality" fill-rule="evenodd" clip-rule="evenodd"
viewBox="0 0 669 836"
 xmlns:xlink="http://www.w3.org/1999/xlink">
<symbol id="Símbolo7" viewBox="1653 -642 632 843">
 <path fill="#0072C6" d="M1654 -527l0 613c0,64 142,115 316,115l0 -728 -316 0 0 0z"/>
 <path fill="#0072C6" d="M1965 201l4 0c175,0 316,-52 316,-115l0 -613 -320 0 0 728 0 0 0 0z"/>
 <path fill="white" d="M1965 201l4 0c175,0 316,-52 316,-115l0 -613 -320 0 0 728 0 0 0 0z"/>
 <path fill="white" d="M2286 -527c0,64 -142,115 -316,115 -175,0 -316,-52 -316,-115 0,-64 142,-115 316,-115 175,0 316,52 316,115z"/>
 <path fill="#7FBA00" d="M2221 -534c0,42 -113,76 -252,76 -139,0 -252,-34 -252,-76 0,-42 113,-76 252,-76 139,0 252,34 252,76z"/>
 <path fill="#B8D432" d="M2168 -487c33,-13 53,-29 53,-46 0,-42 -113,-76 -252,-76 -139,0 -252,34 -252,76 0,18 20,34 53,46 46,-18 118,-30 199,-30 81,0 153,12 199,30m0 0l0 0 0 0z"/>
 <path fill="white" d="M1869 -102c0,19 -7,34 -21,44 -14,10 -33,16 -57,16 -21,0 -38,-4 -52,-11l0 -45c16,14 34,20 53,20 9,0 16,-2 21,-6 5,-4 8,-9 8,-15 0,-6 -2,-11 -7,-16 -5,-4 -15,-10 -30,-17 -30,-14 -46,-34 -46,-59 0,-18 7,-32 20,-43 13,-11 31,-16 53,-16 19,0 36,3 48,8l0 42c-13,-9 -29,-14 -46,-14 -9,0 -16,2 -20,6 -5,3 -7,9 -7,14 0,0 0,0 0,0 0,6 2,12 6,16 4,4 12,9 25,15 19,9 32,18 40,27 8,9 12,21 12,34l0 0 0 0zm140 -152c0,24 -5,44 -16,61 -11,17 -26,30 -45,37l58 54 -58 0 -41 -47c-18,-1 -34,-5 -48,-14 -14,-9 -25,-21 -33,-36 -8,-15 -12,-32 -12,-51 0,-21 4,-39 13,-56 8,-16 20,-29 35,-38 15,-9 33,-13 52,-13 18,0 35,4 49,13 15,8 26,21 34,36 8,16 12,33 12,53l0 0 0 0zm-47 3c0,-20 -4,-36 -13,-48 -9,-12 -21,-18 -36,-18 -16,0 -28,6 -37,18 -9,12 -14,28 -14,47 0,20 5,35 14,47 9,12 21,18 37,18 16,0 28,-6 37,-17 9,-11 14,-27 14,-47l0 0 0 0zm199 99l-44 0 0 -94 45 0 0 164 74 0 -75 -70 0 0z"/>
</symbol>
<symbol id="A" viewBox="113 -2543 3579 4762">
 <path fill="white" stroke="black" stroke-width="59.1603" stroke-linecap="round" stroke-linejoin="round" d="M143 -1897l0 3440c0,357 795,647 1775,647l0 -4086 -1775 0z"/>
 <path fill="#0072C6" d="M1894 2190l24 0c980,0 1775,-289 1775,-647l0 -3440 -1799 0 0 4086 0 0z"/>
 <path fill="white" d="M1894 2190l24 0c980,0 1775,-289 1775,-647l0 -3440 -1799 0 0 4086 0 0z"/>
 <path fill="white" d="M3693 -1897c0,357 -795,647 -1775,647 -980,0 -1775,-289 -1775,-647 0,-357 795,-647 1775,-647 980,0 1775,289 1775,647z"/>
 <path fill="#7FBA00" d="M3330 -1934c0,236 -632,427 -1412,427 -780,0 -1412,-191 -1412,-427 0,-236 632,-427 1412,-427 780,0 1412,191 1412,427z"/>
 <path fill="#B8D432" d="M3034 -1673c185,-72 296,-162 296,-261 0,-236 -632,-427 -1412,-427 -780,0 -1412,191 -1412,427 0,98 111,188 296,261 258,-101 662,-166 1116,-166 455,0 858,65 1116,166m0 0l0 0 0 0z"/>
 <path fill="white" d="M1354 491c0,107 -39,190 -116,248 -77,59 -184,88 -319,88 -116,0 -212,-21 -290,-63l0 -251c90,76 188,115 296,115 52,0 92,-10 121,-31 28,-21 43,-49 43,-83 0,-34 -14,-64 -41,-89 -27,-25 -83,-58 -167,-97 -171,-81 -256,-191 -256,-330 0,-101 37,-182 112,-243 75,-61 173,-92 297,-92 109,0 200,14 272,43l0 235c-75,-52 -161,-79 -258,-79 -48,0 -87,10 -115,31 -26,18 -42,48 -42,80 0,1 0,2 0,3 0,36 11,65 34,88 23,23 69,51 139,84 105,50 179,100 224,152 45,51 67,115 67,192l0 0zm783 -853c0,133 -30,248 -90,345 -60,97 -144,166 -253,205l325 302 -328 0 -232 -262c-99,-4 -189,-30 -269,-79 -80,-49 -142,-117 -185,-202 -43,-86 -65,-181 -65,-286 0,-117 24,-221 71,-312 47,-91 113,-162 199,-211 85,-49 183,-74 294,-74 103,0 195,24 277,72 82,48 145,115 190,203 45,88 68,188 68,299l0 0zm-266 14c0,-114 -25,-204 -74,-271 -50,-66 -117,-99 -203,-99 -87,0 -157,33 -210,100 -53,66 -79,155 -79,266 0,110 26,198 77,264 52,66 120,99 205,99 87,0 156,-32 207,-95 51,-64 77,-151 77,-262l0 0zm1118 557l-245 0 0 -528 252 0 0 921 415 0 -422 -393z"/>
</symbol>
<symbol id="Símbolo6" viewBox="1653 -642 632 843">
 <path fill="#0078D7" d="M1998 -224c-2,-4 -7,-7 -9,-11 -4,-2 -9,-4 -13,-4 -7,0 -11,2 -15,4 -4,2 -7,7 -11,9l-7 13c-2,4 -2,11 -2,18 0,9 0,15 2,20 2,7 4,11 7,13 2,4 7,7 11,7 4,2 9,2 13,2 4,0 9,0 11,-2 4,-2 7,-4 11,-9l7 -13c2,-4 2,-11 2,-20 0,-7 0,-11 -2,-18l-4 -9 0 0 0 0zm-29 -418c-176,0 -316,59 -316,125l0 591c0,66 143,127 316,127 176,0 316,-59 316,-125l0 -591c2,-66 -140,-127 -316,-127zm-94 495c0,4 -2,9 -4,13 -2,4 -4,9 -9,11 -4,4 -9,7 -13,9 -4,2 -11,4 -20,7 -7,2 -15,2 -26,2l-15 0c-4,0 -9,0 -13,-2 -4,0 -9,-2 -11,-2 -4,0 -7,-2 -9,-4l0 -46c2,2 7,4 11,7 4,2 7,4 11,7 4,2 9,2 13,4 4,2 9,2 13,2 4,0 7,0 9,-2 2,0 4,-2 4,-2 2,0 2,-2 2,-4l0 -4c0,-2 0,-4 -2,-7 -2,-2 -2,-4 -4,-4 -2,-2 -4,-2 -9,-4 -4,-2 -7,-2 -11,-4 -7,-2 -13,-7 -20,-11 -4,-4 -9,-7 -13,-11 -4,-4 -7,-9 -7,-13 -2,-4 -2,-11 -2,-15 0,-9 2,-15 4,-22 4,-7 9,-13 13,-18 7,-4 13,-9 22,-11 9,-2 18,-4 29,-4l15 0c4,0 9,0 13,2 4,0 7,2 11,2 4,0 7,2 9,2l0 44c-2,-2 -4,-2 -9,-4 -2,-2 -7,-2 -11,-4 -4,-2 -7,-2 -11,-2l-13 0c-7,0 -11,0 -13,2 -4,2 -4,4 -4,9 0,2 0,4 2,4 0,2 2,2 4,4 2,2 4,2 7,4 2,2 7,2 11,4 7,2 13,7 20,9 7,4 11,7 15,11 4,4 7,9 11,13 2,4 4,11 4,20 -3,3 -4,7 -4,11l0 0 0 -1zm134 72l-37 -39c-11,0 -22,-4 -31,-7 -9,-4 -18,-11 -24,-18 -7,-7 -13,-15 -18,-26 -4,-11 -7,-22 -7,-35 0,-13 2,-26 7,-37 4,-11 11,-20 18,-28 7,-9 18,-13 26,-18 11,-4 22,-7 35,-7 13,0 24,2 33,7 10,4 19,10 26,18 7,7 13,18 18,26 4,11 7,22 7,37 0,9 0,20 -4,26 -2,9 -7,15 -11,22 -4,7 -9,13 -15,18 -7,4 -11,9 -20,13l57 48 -59 0 0 0 0 0zm191 -252l-116 0 0 -169 50 0 0 129 59 0 0 39 7 0 0 0zm-230 -131c-125,0 -226,-31 -226,-68 0,-37 101,-68 226,-68 125,0 226,31 226,68 0,37 -101,68 -226,68l0 0z"/>
</symbol>
<symbol id="Símbolo1" viewBox="143 -2543 3550 4733">
 <path fill="#0072C6" d="M143 -1897l0 3440c0,357 795,647 1775,647l0 -4086 -1775 0z"/>
 <path fill="#0072C6" d="M1894 2190l24 0c980,0 1775,-289 1775,-647l0 -3440 -1799 0 0 4086 0 0z"/>
 <path fill="white" d="M1894 2190l24 0c980,0 1775,-289 1775,-647l0 -3440 -1799 0 0 4086 0 0z"/>
 <path fill="white" d="M3693 -1897c0,357 -795,647 -1775,647 -980,0 -1775,-289 -1775,-647 0,-357 795,-647 1775,-647 980,0 1775,289 1775,647z"/>
 <path fill="#7FBA00" d="M3330 -1934c0,236 -632,427 -1412,427 -780,0 -1412,-191 -1412,-427 0,-236 632,-427 1412,-427 780,0 1412,191 1412,427z"/>
 <path fill="#B8D432" d="M3034 -1673c185,-72 296,-162 296,-261 0,-236 -632,-427 -1412,-427 -780,0 -1412,191 -1412,427 0,98 111,188 296,261 258,-101 662,-166 1116,-166 455,0 858,65 1116,166m0 0l0 0 0 0z"/>
 <path fill="white" d="M1354 491c0,107 -39,190 -116,248 -77,59 -184,88 -319,88 -116,0 -212,-21 -290,-63l0 -251c90,76 188,115 296,115 52,0 92,-10 121,-31 28,-21 43,-49 43,-83 0,-34 -14,-64 -41,-89 -27,-25 -83,-58 -167,-97 -171,-81 -256,-191 -256,-330 0,-101 37,-182 112,-243 75,-61 173,-92 297,-92 109,0 200,14 272,43l0 235c-75,-52 -161,-79 -258,-79 -48,0 -87,10 -115,31 -26,18 -42,48 -42,80 0,1 0,2 0,3 0,36 11,65 34,88 23,23 69,51 139,84 105,50 179,100 224,152 45,51 67,115 67,192l0 0zm783 -853c0,133 -30,248 -90,345 -60,97 -144,166 -253,205l325 302 -328 0 -232 -262c-99,-4 -189,-30 -269,-79 -80,-49 -142,-117 -185,-202 -43,-86 -65,-181 -65,-286 0,-117 24,-221 71,-312 47,-91 113,-162 199,-211 85,-49 183,-74 294,-74 103,0 195,24 277,72 82,48 145,115 190,203 45,88 68,188 68,299l0 0zm-266 14c0,-114 -25,-204 -74,-271 -50,-66 -117,-99 -203,-99 -87,0 -157,33 -210,100 -53,66 -79,155 -79,266 0,110 26,198 77,264 52,66 120,99 205,99 87,0 156,-32 207,-95 51,-64 77,-151 77,-262l0 0zm1118 557l-245 0 0 -528 252 0 0 921 415 0 -422 -393z"/>
</symbol>
<symbol id="Símbolo2" viewBox="143 -2543 3550 4733">
 <path fill="#0078D7" d="M2078 -195c-12,-25 -37,-37 -49,-61 -25,-12 -49,-25 -74,-25 -37,0 -62,12 -86,25 -25,12 -37,37 -62,49l-37 74c-12,25 -12,61 -12,98 0,49 0,86 12,111 12,37 25,61 37,74 12,25 37,37 62,37 25,12 49,12 74,12 25,0 49,0 62,-12 25,-12 37,-25 62,-49l37 -74c12,-25 12,-61 12,-111 0,-37 0,-61 -12,-98l-25 -49 0 0zm-160 -2348c-986,0 -1775,332 -1775,701l0 3319c0,369 801,713 1775,713 986,0 1775,-332 1775,-701l0 -3319c12,-369 -789,-713 -1775,-713zm-530 2778c0,25 -12,49 -25,74 -12,25 -25,49 -49,61 -25,25 -49,37 -74,49 -25,12 -62,25 -111,37 -37,12 -86,12 -148,12l-86 0c-25,0 -49,0 -74,-12 -25,0 -49,-12 -62,-12 -25,0 -37,-12 -49,-25l0 -258c12,12 37,25 62,37 25,12 37,25 62,37 25,12 49,12 74,25 25,12 49,12 74,12 25,0 37,0 49,-12 12,0 25,-12 25,-12 12,0 12,-12 12,-25l0 -25c0,-12 0,-25 -12,-37 -12,-12 -12,-25 -25,-25 -12,-12 -25,-12 -49,-25 -25,-12 -37,-12 -62,-25 -37,-12 -74,-37 -111,-61 -25,-25 -49,-37 -74,-61 -25,-25 -37,-49 -37,-74 -12,-25 -12,-61 -12,-86 0,-49 12,-86 25,-123 25,-37 49,-74 74,-98 37,-25 74,-49 123,-61 49,-12 99,-25 160,-25l86 0c25,0 49,0 74,12 25,0 37,12 62,12 25,0 37,12 49,12l0 246c-12,-12 -25,-12 -49,-25 -12,-12 -37,-12 -62,-25 -25,-12 -37,-12 -62,-12l-74 0c-37,0 -62,0 -74,12 -25,12 -25,25 -25,49 0,12 0,25 12,25 0,12 12,12 25,25 12,12 25,12 37,25 12,12 37,12 62,25 37,12 74,37 111,49 37,25 62,37 86,61 25,25 37,49 62,74 12,25 25,61 25,111 -15,17 -24,39 -25,61l0 0zm752 406l-209 -221c-62,0 -123,-25 -173,-37 -49,-25 -99,-61 -136,-98 -37,-37 -74,-86 -99,-148 -25,-61 -37,-123 -37,-197 0,-74 12,-147 37,-209 25,-61 62,-111 99,-160 37,-49 99,-74 148,-98 62,-25 123,-37 197,-37 74,0 136,12 185,37 55,22 106,56 148,98 37,37 74,98 99,147 25,61 37,123 37,209 0,49 0,111 -25,147 -12,49 -37,86 -62,123 -25,37 -49,74 -86,98 -37,25 -62,49 -111,74l320 270 -333 0 0 0zm1072 -1414l-653 0 0 -947 283 0 0 725 333 0 0 221 37 0zm-1294 -738c-703,0 -1269,-172 -1269,-381 0,-209 567,-381 1269,-381 703,0 1269,172 1269,381 0,209 -567,381 -1269,381l0 0z"/>
</symbol>
<symbol id="Símbolo4" viewBox="1653 -642 632 843">
 <path fill="#0078D7" d="M1998 -224c-2,-4 -7,-7 -9,-11 -4,-2 -9,-4 -13,-4 -7,0 -11,2 -15,4 -4,2 -7,7 -11,9l-7 13c-2,4 -2,11 -2,18 0,9 0,15 2,20 2,7 4,11 7,13 2,4 7,7 11,7 4,2 9,2 13,2 4,0 9,0 11,-2 4,-2 7,-4 11,-9l7 -13c2,-4 2,-11 2,-20 0,-7 0,-11 -2,-18l-4 -9 0 0 0 0zm-29 -418c-176,0 -316,59 -316,125l0 591c0,66 143,127 316,127 176,0 316,-59 316,-125l0 -591c2,-66 -140,-127 -316,-127zm-94 495c0,4 -2,9 -4,13 -2,4 -4,9 -9,11 -4,4 -9,7 -13,9 -4,2 -11,4 -20,7 -7,2 -15,2 -26,2l-15 0c-4,0 -9,0 -13,-2 -4,0 -9,-2 -11,-2 -4,0 -7,-2 -9,-4l0 -46c2,2 7,4 11,7 4,2 7,4 11,7 4,2 9,2 13,4 4,2 9,2 13,2 4,0 7,0 9,-2 2,0 4,-2 4,-2 2,0 2,-2 2,-4l0 -4c0,-2 0,-4 -2,-7 -2,-2 -2,-4 -4,-4 -2,-2 -4,-2 -9,-4 -4,-2 -7,-2 -11,-4 -7,-2 -13,-7 -20,-11 -4,-4 -9,-7 -13,-11 -4,-4 -7,-9 -7,-13 -2,-4 -2,-11 -2,-15 0,-9 2,-15 4,-22 4,-7 9,-13 13,-18 7,-4 13,-9 22,-11 9,-2 18,-4 29,-4l15 0c4,0 9,0 13,2 4,0 7,2 11,2 4,0 7,2 9,2l0 44c-2,-2 -4,-2 -9,-4 -2,-2 -7,-2 -11,-4 -4,-2 -7,-2 -11,-2l-13 0c-7,0 -11,0 -13,2 -4,2 -4,4 -4,9 0,2 0,4 2,4 0,2 2,2 4,4 2,2 4,2 7,4 2,2 7,2 11,4 7,2 13,7 20,9 7,4 11,7 15,11 4,4 7,9 11,13 2,4 4,11 4,20 -3,3 -4,7 -4,11l0 0 0 -1zm134 72l-37 -39c-11,0 -22,-4 -31,-7 -9,-4 -18,-11 -24,-18 -7,-7 -13,-15 -18,-26 -4,-11 -7,-22 -7,-35 0,-13 2,-26 7,-37 4,-11 11,-20 18,-28 7,-9 18,-13 26,-18 11,-4 22,-7 35,-7 13,0 24,2 33,7 10,4 19,10 26,18 7,7 13,18 18,26 4,11 7,22 7,37 0,9 0,20 -4,26 -2,9 -7,15 -11,22 -4,7 -9,13 -15,18 -7,4 -11,9 -20,13l57 48 -59 0 0 0 0 0zm191 -252l-116 0 0 -169 50 0 0 129 59 0 0 39 7 0 0 0zm-230 -131c-125,0 -226,-31 -226,-68 0,-37 101,-68 226,-68 125,0 226,31 226,68 0,37 -101,68 -226,68l0 0z"/>
</symbol>
<symbol id="Símbolo3" viewBox="143 -2543 3550 4733">
 <path fill="#0078D7" d="M2078 -195c-12,-25 -37,-37 -49,-61 -25,-12 -49,-25 -74,-25 -37,0 -62,12 -86,25 -25,12 -37,37 -62,49l-37 74c-12,25 -12,61 -12,98 0,49 0,86 12,111 12,37 25,61 37,74 12,25 37,37 62,37 25,12 49,12 74,12 25,0 49,0 62,-12 25,-12 37,-25 62,-49l37 -74c12,-25 12,-61 12,-111 0,-37 0,-61 -12,-98l-25 -49 0 0zm-160 -2348c-986,0 -1775,332 -1775,701l0 3319c0,369 801,713 1775,713 986,0 1775,-332 1775,-701l0 -3319c12,-369 -789,-713 -1775,-713zm-530 2778c0,25 -12,49 -25,74 -12,25 -25,49 -49,61 -25,25 -49,37 -74,49 -25,12 -62,25 -111,37 -37,12 -86,12 -148,12l-86 0c-25,0 -49,0 -74,-12 -25,0 -49,-12 -62,-12 -25,0 -37,-12 -49,-25l0 -258c12,12 37,25 62,37 25,12 37,25 62,37 25,12 49,12 74,25 25,12 49,12 74,12 25,0 37,0 49,-12 12,0 25,-12 25,-12 12,0 12,-12 12,-25l0 -25c0,-12 0,-25 -12,-37 -12,-12 -12,-25 -25,-25 -12,-12 -25,-12 -49,-25 -25,-12 -37,-12 -62,-25 -37,-12 -74,-37 -111,-61 -25,-25 -49,-37 -74,-61 -25,-25 -37,-49 -37,-74 -12,-25 -12,-61 -12,-86 0,-49 12,-86 25,-123 25,-37 49,-74 74,-98 37,-25 74,-49 123,-61 49,-12 99,-25 160,-25l86 0c25,0 49,0 74,12 25,0 37,12 62,12 25,0 37,12 49,12l0 246c-12,-12 -25,-12 -49,-25 -12,-12 -37,-12 -62,-25 -25,-12 -37,-12 -62,-12l-74 0c-37,0 -62,0 -74,12 -25,12 -25,25 -25,49 0,12 0,25 12,25 0,12 12,12 25,25 12,12 25,12 37,25 12,12 37,12 62,25 37,12 74,37 111,49 37,25 62,37 86,61 25,25 37,49 62,74 12,25 25,61 25,111 -15,17 -24,39 -25,61l0 0zm752 406l-209 -221c-62,0 -123,-25 -173,-37 -49,-25 -99,-61 -136,-98 -37,-37 -74,-86 -99,-148 -25,-61 -37,-123 -37,-197 0,-74 12,-147 37,-209 25,-61 62,-111 99,-160 37,-49 99,-74 148,-98 62,-25 123,-37 197,-37 74,0 136,12 185,37 55,22 106,56 148,98 37,37 74,98 99,147 25,61 37,123 37,209 0,49 0,111 -25,147 -12,49 -37,86 -62,123 -25,37 -49,74 -86,98 -37,25 -62,49 -111,74l320 270 -333 0 0 0zm1072 -1414l-653 0 0 -947 283 0 0 725 333 0 0 221 37 0zm-1294 -738c-703,0 -1269,-172 -1269,-381 0,-209 567,-381 1269,-381 703,0 1269,172 1269,381 0,209 -567,381 -1269,381l0 0z"/>
</symbol>
<symbol id="Símbolo5" viewBox="1648 -639 632 841">
 <path fill="white" stroke="black" stroke-width="10.4518" stroke-linecap="round" stroke-linejoin="round" d="M1653 -525l0 608c0,63 140,114 314,114l0 -722 -314 0 0 0z"/>
 <path fill="#0072C6" d="M1962 197l4 0c173,0 314,-51 314,-114l0 -608 -318 0 0 722 0 0 0 0z"/>
 <path fill="white" d="M1962 197l4 0c173,0 314,-51 314,-114l0 -608 -318 0 0 722 0 0 0 0z"/>
 <path fill="white" d="M2280 -525c0,63 -140,114 -314,114 -173,0 -314,-51 -314,-114 0,-63 140,-114 314,-114 173,0 314,51 314,114z"/>
 <path fill="#7FBA00" d="M2216 -532c0,42 -112,75 -249,75 -138,0 -249,-34 -249,-75 0,-42 112,-75 249,-75 138,0 249,34 249,75z"/>
 <path fill="#B8D432" d="M2164 -486c33,-13 52,-29 52,-46 0,-42 -112,-75 -249,-75 -138,0 -249,34 -249,75 0,17 20,33 52,46 46,-18 117,-29 197,-29 80,0 152,11 197,29m0 0l0 0 0 0z"/>
 <path fill="white" d="M1867 -103c0,19 -7,34 -20,44 -14,10 -32,16 -56,16 -20,0 -37,-4 -51,-11l0 -44c16,14 33,20 52,20 9,0 16,-2 21,-6 5,-4 8,-9 8,-15 0,-6 -2,-11 -7,-16 -5,-4 -15,-10 -29,-17 -30,-14 -45,-34 -45,-58 0,-18 6,-32 20,-43 13,-11 31,-16 52,-16 19,0 35,3 48,8l0 41c-13,-9 -29,-14 -46,-14 -9,0 -15,2 -20,6 -5,3 -7,9 -7,14 0,0 0,0 0,0 0,6 2,11 6,16 4,4 12,9 25,15 19,9 32,18 40,27 8,9 12,20 12,34l0 0 0 0zm138 -151c0,23 -5,44 -16,61 -11,17 -26,29 -45,36l57 54 -58 0 -41 -46c-18,-1 -33,-5 -48,-14 -14,-9 -25,-21 -33,-36 -8,-15 -11,-32 -11,-51 0,-21 4,-39 12,-55 8,-16 20,-29 35,-37 15,-9 32,-13 52,-13 18,0 34,4 49,13 14,8 26,20 34,36 8,16 12,33 12,53l0 0 0 0zm-47 3c0,-20 -4,-36 -13,-48 -9,-12 -21,-18 -36,-18 -15,0 -28,6 -37,18 -9,12 -14,27 -14,47 0,19 5,35 14,46 9,12 21,17 36,17 15,0 28,-6 36,-17 9,-11 14,-27 14,-46l0 0 0 0zm197 98l-43 0 0 -93 45 0 0 163 73 0 -74 -69 0 0z"/>
</symbol>
 <g id="Capa_x0020_1">
  <metadata id="CorelCorpID_0Corel-Layer"/>
  <g id="_173321408">
   <circle fill="#1794D4" cx="335" cy="335" r="335"/>
   <polygon fill="white" points="382,120 335,120 335,167 382,167 "/>
   <polygon fill="white" points="191,191 239,191 239,239 191,239 "/>
   <path fill="white" d="M96 357c4,69 45,169 191,169 163,0 235,-120 251,-179 20,0 65,-12 84,-60 -12,-12 -60,-12 -84,0 0,-19 -12,-60 -36,-72 -16,16 -41,57 -12,96 -12,24 -44,24 -60,24l-312 0c-13,0 -23,10 -23,23z"/>
   <polygon fill="white" points="167,263 120,263 120,311 167,311 "/>
   <polygon fill="white" points="191,263 239,263 239,311 191,311 "/>
   <polygon fill="white" points="311,263 263,263 263,311 311,311 "/>
   <polygon fill="white" points="335,263 382,263 382,311 335,311 "/>
   <polygon fill="white" points="454,263 406,263 406,311 454,311 "/>
   <polygon fill="white" points="311,191 263,191 263,239 311,239 "/>
   <polygon fill="white" points="335,191 382,191 382,239 335,239 "/>
  </g>
  <path fill="#FEFEFE" fill-rule="nonzero" d="M174 835l0 -76 26 0c6,0 10,0 14,1 4,1 8,3 11,5 4,3 7,8 9,13 2,5 3,11 3,18 0,6 -1,11 -2,15 -1,4 -3,8 -5,11 -2,3 -4,5 -7,7 -2,2 -6,3 -9,4 -4,1 -8,1 -12,1l-27 0zm10 -9l16 0c5,0 9,0 12,-1 3,-1 5,-2 7,-4 2,-2 4,-6 6,-10 1,-4 2,-9 2,-15 0,-8 -1,-14 -4,-18 -3,-4 -6,-7 -9,-9 -3,-1 -7,-2 -13,-2l-16 0 0 58z"/>
  <path id="1" fill="#FEFEFE" fill-rule="nonzero" d="M246 807c0,-10 3,-18 8,-23 5,-4 10,-6 17,-6 8,0 14,2 19,7 5,5 7,12 7,20 0,7 -1,13 -3,17 -2,4 -5,7 -9,9 -4,2 -8,3 -13,3 -8,0 -14,-2 -19,-7 -5,-5 -7,-12 -7,-21zm10 0c0,7 2,12 5,16 3,4 7,5 12,5 5,0 8,-2 12,-5 3,-4 5,-9 5,-16 0,-7 -2,-12 -5,-15 -3,-3 -7,-5 -12,-5 -5,0 -9,2 -12,5 -3,3 -5,9 -5,16z"/>
  <path id="12" fill="#FEFEFE" fill-rule="nonzero" d="M344 815l9 1c-1,6 -4,11 -8,15 -4,4 -9,5 -15,5 -8,0 -14,-2 -18,-7 -5,-5 -7,-12 -7,-21 0,-6 1,-11 3,-16 2,-4 5,-8 9,-10 4,-2 8,-3 13,-3 6,0 11,2 15,5 4,3 6,7 7,13l-9 1c-1,-4 -2,-6 -5,-8 -2,-2 -5,-3 -8,-3 -5,0 -9,2 -11,5 -3,3 -4,9 -4,16 0,7 1,13 4,16 3,3 7,5 11,5 4,0 7,-1 9,-3 2,-2 4,-6 5,-10z"/>
  <polygon id="123" fill="#FEFEFE" fill-rule="nonzero" points="362,835 362,759 371,759 371,802 393,780 405,780 384,800 407,835 396,835 377,807 371,813 371,835 "/>
  <path id="1234" fill="#FEFEFE" fill-rule="nonzero" d="M452 817l10 1c-2,6 -4,10 -8,13 -4,3 -9,5 -16,5 -8,0 -14,-2 -19,-7 -5,-5 -7,-12 -7,-21 0,-9 2,-16 7,-22 5,-5 11,-8 19,-8 7,0 13,3 18,8 5,5 7,12 7,21 0,1 0,1 0,2l-41 0c0,6 2,11 5,14 3,3 7,5 11,5 3,0 6,-1 9,-3 2,-2 4,-5 6,-9zm-31 -15l31 0c0,-5 -2,-8 -4,-10 -3,-4 -7,-5 -12,-5 -4,0 -8,1 -11,4 -3,3 -5,7 -5,11z"/>
  <path id="12345" fill="#FEFEFE" fill-rule="nonzero" d="M473 835l0 -55 8 0 0 8c2,-4 4,-6 6,-8 2,-1 4,-2 6,-2 3,0 6,1 10,3l-3 9c-2,-1 -5,-2 -7,-2 -2,0 -4,1 -5,2 -2,1 -3,3 -3,5 -1,3 -2,7 -2,11l0 29 -9 0z"/>
 </g>
</svg>
