<?xml version="1.0" encoding="UTF-8"?>
<!DOCTYPE svg PUBLIC "-//W3C//DTD SVG 1.1//EN" "http://www.w3.org/Graphics/SVG/1.1/DTD/svg11.dtd">
<!-- Creator: CorelDRAW X5 -->
<svg xmlns="http://www.w3.org/2000/svg" xml:space="preserve" width="39.1028mm" height="48.6923mm" shape-rendering="geometricPrecision" text-rendering="geometricPrecision" image-rendering="optimizeQuality" fill-rule="evenodd" clip-rule="evenodd"
viewBox="0 0 897 1117"
 xmlns:xlink="http://www.w3.org/1999/xlink">
<symbol id="Símbolo7" viewBox="-2348 -857 844 1125">
 <path fill="#0072C6" d="M-2347 -703l0 818c0,85 189,154 422,154l0 -971 -422 0 0 0z"/>
 <path fill="#0072C6" d="M-1931 268l6 0c233,0 422,-69 422,-154l0 -818 -428 0 0 971 0 0 0 0z"/>
 <path fill="white" d="M-1931 268l6 0c233,0 422,-69 422,-154l0 -818 -428 0 0 971 0 0 0 0z"/>
 <path fill="white" d="M-1504 -703c0,85 -189,154 -422,154 -233,0 -422,-69 -422,-154 0,-85 189,-154 422,-154 233,0 422,69 422,154z"/>
 <path fill="#7FBA00" d="M-1590 -712c0,56 -150,101 -336,101 -185,0 -336,-45 -336,-101 0,-56 150,-101 336,-101 185,0 336,45 336,101z"/>
 <path fill="#B8D432" d="M-1660 -650c44,-17 70,-39 70,-62 0,-56 -150,-101 -336,-101 -185,0 -336,45 -336,101 0,23 26,45 70,62 61,-24 157,-39 265,-39 108,0 204,15 265,39m0 0l0 0 0 0z"/>
 <path fill="white" d="M-2060 -136c0,25 -9,45 -27,59 -18,14 -44,21 -76,21 -27,0 -50,-5 -69,-15l0 -60c21,18 45,27 70,27 12,0 22,-2 29,-7 7,-5 10,-11 10,-20 0,-8 -3,-15 -10,-21 -6,-6 -20,-14 -40,-23 -41,-19 -61,-45 -61,-79 0,-24 9,-43 27,-58 18,-14 41,-22 71,-22 26,0 48,3 65,10l0 56c-18,-12 -38,-19 -61,-19 -11,0 -21,2 -27,7 -6,4 -10,11 -10,19 0,0 0,0 0,0 0,8 3,15 8,21 5,5 16,12 33,20 25,12 43,24 53,36 11,12 16,27 16,46l0 0 0 0zm186 -203c0,31 -7,59 -21,82 -14,23 -34,39 -60,49l77 72 -78 0 -55 -62c-24,-1 -45,-7 -64,-19 -19,-12 -34,-28 -44,-48 -10,-20 -15,-43 -15,-68 0,-28 5,-53 17,-74 11,-22 27,-38 47,-50 20,-12 44,-17 70,-17 24,0 46,6 66,17 19,11 34,27 45,48 11,21 16,45 16,71l0 0 0 0zm-63 3c0,-27 -6,-49 -18,-64 -12,-16 -28,-24 -48,-24 -21,0 -37,8 -50,24 -12,16 -19,37 -19,63 0,26 6,47 18,63 12,16 28,23 49,23 21,0 37,-7 49,-23 12,-15 18,-36 18,-62l0 0 0 0zm266 132l-58 0 0 -126 60 0 0 219 99 0 -100 -93 0 0z"/>
</symbol>
<symbol id="A" viewBox="-4403 -3394 4777 6357">
 <path fill="white" stroke="black" stroke-width="78.9652" stroke-linecap="round" stroke-linejoin="round" d="M-4364 -2531l0 4591c0,477 1061,863 2369,863l0 -5454 -2369 0z"/>
 <path fill="#0072C6" d="M-2027 2923l32 0c1308,0 2369,-386 2369,-863l0 -4591 -2401 0 0 5454 0 0z"/>
 <path fill="white" d="M-2027 2923l32 0c1308,0 2369,-386 2369,-863l0 -4591 -2401 0 0 5454 0 0z"/>
 <path fill="white" d="M374 -2531c0,477 -1061,863 -2369,863 -1308,0 -2369,-386 -2369,-863 0,-477 1061,-863 2369,-863 1308,0 2369,386 2369,863z"/>
 <path fill="#7FBA00" d="M-110 -2581c0,315 -844,569 -1885,569 -1041,0 -1885,-255 -1885,-569 0,-315 844,-569 1885,-569 1041,0 1885,255 1885,569z"/>
 <path fill="#B8D432" d="M-505 -2233c247,-96 395,-217 395,-348 0,-315 -844,-570 -1885,-570 -1041,0 -1885,255 -1885,570 0,131 148,252 395,348 345,-135 883,-221 1490,-221 607,0 1145,87 1490,221m0 0l0 0 0 0z"/>
 <path fill="white" d="M-2747 655c0,143 -51,253 -154,331 -103,78 -245,118 -426,118 -154,0 -283,-28 -387,-84l0 -336c120,102 251,153 395,153 69,0 123,-14 161,-42 38,-28 57,-65 57,-111 0,-45 -18,-85 -55,-118 -36,-34 -111,-77 -223,-130 -228,-108 -342,-255 -342,-440 0,-135 50,-243 149,-325 99,-81 231,-122 396,-122 146,0 267,19 363,58l0 314c-101,-70 -215,-105 -344,-105 -65,0 -116,14 -153,41 -35,24 -56,64 -56,107 0,1 0,2 0,3 0,48 15,87 45,117 30,30 92,68 186,113 140,66 239,134 299,202 60,69 89,154 89,256l0 0zm1046 -1138c0,177 -40,330 -120,460 -80,130 -193,221 -338,274l434 404 -438 0 -310 -349c-133,-5 -253,-40 -359,-106 -107,-66 -189,-156 -247,-270 -58,-114 -87,-242 -87,-382 0,-156 31,-295 94,-417 63,-122 151,-216 265,-282 114,-66 245,-99 392,-99 137,0 261,32 370,95 109,64 193,154 253,272 60,118 90,251 90,400l0 0zm-354 19c0,-152 -33,-273 -99,-361 -66,-89 -156,-133 -271,-133 -117,0 -210,44 -280,133 -70,89 -105,207 -105,354 0,147 34,264 103,352 69,88 160,132 274,132 116,0 208,-42 276,-127 68,-85 102,-201 102,-350l0 0zm1492 743l-328 0 0 -705 337 0 0 1229 554 0 -563 -524z"/>
</symbol>
<symbol id="Símbolo6" viewBox="-2348 -857 844 1125">
 <path fill="#0078D7" d="M-1888 -299c-3,-6 -9,-9 -12,-15 -6,-3 -12,-6 -18,-6 -9,0 -15,3 -20,6 -6,3 -9,9 -15,12l-9 17c-3,6 -3,15 -3,23 0,12 0,20 3,26 3,9 6,15 9,17 3,6 9,9 15,9 6,3 12,3 18,3 6,0 12,0 15,-3 6,-3 9,-6 15,-12l9 -17c3,-6 3,-15 3,-26 0,-9 0,-15 -3,-23l-6 -12 0 0 0 0zm-38 -558c-234,0 -422,79 -422,167l0 789c0,88 190,170 422,170 234,0 422,-79 422,-167l0 -789c3,-88 -187,-170 -422,-170zm-126 661c0,6 -3,12 -6,17 -3,6 -6,12 -12,15 -6,6 -12,9 -18,12 -6,3 -15,6 -26,9 -9,3 -20,3 -35,3l-20 0c-6,0 -12,0 -18,-3 -6,0 -12,-3 -15,-3 -6,0 -9,-3 -12,-6l0 -61c3,3 9,6 15,9 6,3 9,6 15,9 6,3 12,3 18,6 6,3 12,3 18,3 6,0 9,0 12,-3 3,0 6,-3 6,-3 3,0 3,-3 3,-6l0 -6c0,-3 0,-6 -3,-9 -3,-3 -3,-6 -6,-6 -3,-3 -6,-3 -12,-6 -6,-3 -9,-3 -15,-6 -9,-3 -18,-9 -26,-15 -6,-6 -12,-9 -18,-15 -6,-6 -9,-12 -9,-17 -3,-6 -3,-15 -3,-20 0,-12 3,-20 6,-29 6,-9 12,-17 18,-23 9,-6 18,-12 29,-15 12,-3 23,-6 38,-6l20 0c6,0 12,0 18,3 6,0 9,3 15,3 6,0 9,3 12,3l0 59c-3,-3 -6,-3 -12,-6 -3,-3 -9,-3 -15,-6 -6,-3 -9,-3 -15,-3l-18 0c-9,0 -15,0 -18,3 -6,3 -6,6 -6,12 0,3 0,6 3,6 0,3 3,3 6,6 3,3 6,3 9,6 3,3 9,3 15,6 9,3 18,9 26,12 9,6 15,9 20,15 6,6 9,12 15,17 3,6 6,15 6,26 -4,4 -6,9 -6,15l0 0 0 -1zm179 96l-50 -53c-15,0 -29,-6 -41,-9 -12,-6 -23,-15 -32,-23 -9,-9 -18,-20 -23,-35 -6,-15 -9,-29 -9,-47 0,-17 3,-35 9,-50 6,-15 15,-26 23,-38 9,-12 23,-17 35,-23 15,-6 29,-9 47,-9 18,0 32,3 44,9 13,5 25,13 35,23 9,9 18,23 23,35 6,15 9,29 9,50 0,12 0,26 -6,35 -3,12 -9,20 -15,29 -6,9 -12,17 -20,23 -9,6 -15,12 -26,17l76 64 -79 0 0 0 0 0zm255 -336l-155 0 0 -225 67 0 0 172 79 0 0 53 9 0 0 0zm-308 -175c-167,0 -302,-41 -302,-90 0,-50 135,-90 302,-90 167,0 302,41 302,90 0,50 -135,90 -302,90l0 0z"/>
</symbol>
<symbol id="Símbolo1" viewBox="-4364 -3394 4738 6317">
 <path fill="#0072C6" d="M-4364 -2531l0 4591c0,477 1061,863 2369,863l0 -5454 -2369 0z"/>
 <path fill="#0072C6" d="M-2027 2923l32 0c1308,0 2369,-386 2369,-863l0 -4591 -2401 0 0 5454 0 0z"/>
 <path fill="white" d="M-2027 2923l32 0c1308,0 2369,-386 2369,-863l0 -4591 -2401 0 0 5454 0 0z"/>
 <path fill="white" d="M374 -2531c0,477 -1061,863 -2369,863 -1308,0 -2369,-386 -2369,-863 0,-477 1061,-863 2369,-863 1308,0 2369,386 2369,863z"/>
 <path fill="#7FBA00" d="M-110 -2581c0,315 -844,569 -1885,569 -1041,0 -1885,-255 -1885,-569 0,-315 844,-569 1885,-569 1041,0 1885,255 1885,569z"/>
 <path fill="#B8D432" d="M-505 -2233c247,-96 395,-217 395,-348 0,-315 -844,-570 -1885,-570 -1041,0 -1885,255 -1885,570 0,131 148,252 395,348 345,-135 883,-221 1490,-221 607,0 1145,87 1490,221m0 0l0 0 0 0z"/>
 <path fill="white" d="M-2747 655c0,143 -51,253 -154,331 -103,78 -245,118 -426,118 -154,0 -283,-28 -387,-84l0 -336c120,102 251,153 395,153 69,0 123,-14 161,-42 38,-28 57,-65 57,-111 0,-45 -18,-85 -55,-118 -36,-34 -111,-77 -223,-130 -228,-108 -342,-255 -342,-440 0,-135 50,-243 149,-325 99,-81 231,-122 396,-122 146,0 267,19 363,58l0 314c-101,-70 -215,-105 -344,-105 -65,0 -116,14 -153,41 -35,24 -56,64 -56,107 0,1 0,2 0,3 0,48 15,87 45,117 30,30 92,68 186,113 140,66 239,134 299,202 60,69 89,154 89,256l0 0zm1046 -1138c0,177 -40,330 -120,460 -80,130 -193,221 -338,274l434 404 -438 0 -310 -349c-133,-5 -253,-40 -359,-106 -107,-66 -189,-156 -247,-270 -58,-114 -87,-242 -87,-382 0,-156 31,-295 94,-417 63,-122 151,-216 265,-282 114,-66 245,-99 392,-99 137,0 261,32 370,95 109,64 193,154 253,272 60,118 90,251 90,400l0 0zm-354 19c0,-152 -33,-273 -99,-361 -66,-89 -156,-133 -271,-133 -117,0 -210,44 -280,133 -70,89 -105,207 -105,354 0,147 34,264 103,352 69,88 160,132 274,132 116,0 208,-42 276,-127 68,-85 102,-201 102,-350l0 0zm1492 743l-328 0 0 -705 337 0 0 1229 554 0 -563 -524z"/>
</symbol>
<symbol id="Símbolo2" viewBox="-4364 -3394 4738 6317">
 <path fill="#0078D7" d="M-1781 -260c-16,-33 -49,-49 -66,-82 -33,-16 -66,-33 -99,-33 -49,0 -82,16 -115,33 -33,16 -49,49 -82,66l-49 98c-16,33 -16,82 -16,131 0,66 0,115 16,148 16,49 33,82 49,98 17,33 49,49 82,49 33,16 66,16 99,16 33,0 66,0 82,-16 33,-16 49,-33 82,-66l49 -98c16,-33 16,-82 16,-148 0,-49 0,-82 -16,-131l-33 -66 0 0zm-214 -3134c-1316,0 -2369,443 -2369,935l0 4430c0,492 1069,952 2369,952 1316,0 2369,-443 2369,-935l0 -4430c16,-492 -1053,-952 -2369,-952zm-707 3708c0,33 -16,66 -33,98 -17,33 -33,66 -66,82 -33,33 -66,49 -99,66 -33,16 -82,33 -148,49 -49,16 -115,16 -197,16l-115 0c-33,0 -66,0 -99,-16 -33,0 -66,-16 -82,-16 -33,0 -49,-16 -66,-33l0 -345c16,16 49,33 82,49 33,16 49,33 82,49 33,16 66,16 99,33 33,16 66,16 99,16 33,0 49,0 66,-16 16,0 33,-16 33,-16 16,0 16,-16 16,-33l0 -33c0,-16 0,-33 -16,-49 -16,-16 -16,-33 -33,-33 -16,-16 -33,-16 -66,-33 -33,-16 -49,-16 -82,-33 -49,-16 -99,-49 -148,-82 -33,-33 -66,-49 -99,-82 -33,-33 -49,-66 -49,-98 -17,-33 -17,-82 -17,-115 0,-66 17,-115 33,-164 33,-49 66,-98 99,-131 49,-33 99,-66 164,-82 66,-16 132,-33 214,-33l115 0c33,0 66,0 99,16 33,0 49,16 82,16 33,0 49,16 66,16l0 328c-17,-16 -33,-16 -66,-33 -16,-16 -49,-16 -82,-33 -33,-16 -49,-16 -82,-16l-99 0c-49,0 -82,0 -99,16 -33,16 -33,33 -33,66 0,16 0,33 16,33 0,16 16,16 33,33 17,16 33,16 49,33 16,16 49,16 82,33 49,16 99,49 148,66 49,33 82,49 115,82 33,33 49,66 82,98 16,33 33,82 33,148 -21,22 -32,52 -33,82l0 0zm1003 541l-280 -295c-82,0 -164,-33 -230,-49 -66,-33 -132,-82 -181,-131 -49,-49 -99,-115 -132,-197 -33,-82 -49,-164 -49,-263 0,-98 16,-197 49,-279 33,-82 82,-148 132,-213 49,-66 132,-98 197,-131 82,-33 164,-49 263,-49 99,0 181,16 247,49 74,30 141,75 197,131 49,49 99,131 132,197 33,82 49,164 49,279 0,66 0,148 -33,197 -16,66 -49,115 -82,164 -33,49 -66,98 -115,131 -49,33 -82,66 -148,98l428 361 -444 0 0 0zm1431 -1887l-872 0 0 -1263 378 0 0 968 444 0 0 295 49 0zm-1727 -985c-938,0 -1694,-230 -1694,-509 0,-279 757,-509 1694,-509 938,0 1694,230 1694,509 0,279 -757,509 -1694,509l0 0z"/>
</symbol>
<symbol id="Símbolo4" viewBox="-2348 -857 844 1125">
 <path fill="#0078D7" d="M-1888 -299c-3,-6 -9,-9 -12,-15 -6,-3 -12,-6 -18,-6 -9,0 -15,3 -20,6 -6,3 -9,9 -15,12l-9 17c-3,6 -3,15 -3,23 0,12 0,20 3,26 3,9 6,15 9,17 3,6 9,9 15,9 6,3 12,3 18,3 6,0 12,0 15,-3 6,-3 9,-6 15,-12l9 -17c3,-6 3,-15 3,-26 0,-9 0,-15 -3,-23l-6 -12 0 0 0 0zm-38 -558c-234,0 -422,79 -422,167l0 789c0,88 190,170 422,170 234,0 422,-79 422,-167l0 -789c3,-88 -187,-170 -422,-170zm-126 661c0,6 -3,12 -6,17 -3,6 -6,12 -12,15 -6,6 -12,9 -18,12 -6,3 -15,6 -26,9 -9,3 -20,3 -35,3l-20 0c-6,0 -12,0 -18,-3 -6,0 -12,-3 -15,-3 -6,0 -9,-3 -12,-6l0 -61c3,3 9,6 15,9 6,3 9,6 15,9 6,3 12,3 18,6 6,3 12,3 18,3 6,0 9,0 12,-3 3,0 6,-3 6,-3 3,0 3,-3 3,-6l0 -6c0,-3 0,-6 -3,-9 -3,-3 -3,-6 -6,-6 -3,-3 -6,-3 -12,-6 -6,-3 -9,-3 -15,-6 -9,-3 -18,-9 -26,-15 -6,-6 -12,-9 -18,-15 -6,-6 -9,-12 -9,-17 -3,-6 -3,-15 -3,-20 0,-12 3,-20 6,-29 6,-9 12,-17 18,-23 9,-6 18,-12 29,-15 12,-3 23,-6 38,-6l20 0c6,0 12,0 18,3 6,0 9,3 15,3 6,0 9,3 12,3l0 59c-3,-3 -6,-3 -12,-6 -3,-3 -9,-3 -15,-6 -6,-3 -9,-3 -15,-3l-18 0c-9,0 -15,0 -18,3 -6,3 -6,6 -6,12 0,3 0,6 3,6 0,3 3,3 6,6 3,3 6,3 9,6 3,3 9,3 15,6 9,3 18,9 26,12 9,6 15,9 20,15 6,6 9,12 15,17 3,6 6,15 6,26 -4,4 -6,9 -6,15l0 0 0 -1zm179 96l-50 -53c-15,0 -29,-6 -41,-9 -12,-6 -23,-15 -32,-23 -9,-9 -18,-20 -23,-35 -6,-15 -9,-29 -9,-47 0,-17 3,-35 9,-50 6,-15 15,-26 23,-38 9,-12 23,-17 35,-23 15,-6 29,-9 47,-9 18,0 32,3 44,9 13,5 25,13 35,23 9,9 18,23 23,35 6,15 9,29 9,50 0,12 0,26 -6,35 -3,12 -9,20 -15,29 -6,9 -12,17 -20,23 -9,6 -15,12 -26,17l76 64 -79 0 0 0 0 0zm255 -336l-155 0 0 -225 67 0 0 172 79 0 0 53 9 0 0 0zm-308 -175c-167,0 -302,-41 -302,-90 0,-50 135,-90 302,-90 167,0 302,41 302,90 0,50 -135,90 -302,90l0 0z"/>
</symbol>
<symbol id="Símbolo3" viewBox="-4364 -3394 4738 6317">
 <path fill="#0078D7" d="M-1781 -260c-16,-33 -49,-49 -66,-82 -33,-16 -66,-33 -99,-33 -49,0 -82,16 -115,33 -33,16 -49,49 -82,66l-49 98c-16,33 -16,82 -16,131 0,66 0,115 16,148 16,49 33,82 49,98 17,33 49,49 82,49 33,16 66,16 99,16 33,0 66,0 82,-16 33,-16 49,-33 82,-66l49 -98c16,-33 16,-82 16,-148 0,-49 0,-82 -16,-131l-33 -66 0 0zm-214 -3134c-1316,0 -2369,443 -2369,935l0 4430c0,492 1069,952 2369,952 1316,0 2369,-443 2369,-935l0 -4430c16,-492 -1053,-952 -2369,-952zm-707 3708c0,33 -16,66 -33,98 -17,33 -33,66 -66,82 -33,33 -66,49 -99,66 -33,16 -82,33 -148,49 -49,16 -115,16 -197,16l-115 0c-33,0 -66,0 -99,-16 -33,0 -66,-16 -82,-16 -33,0 -49,-16 -66,-33l0 -345c16,16 49,33 82,49 33,16 49,33 82,49 33,16 66,16 99,33 33,16 66,16 99,16 33,0 49,0 66,-16 16,0 33,-16 33,-16 16,0 16,-16 16,-33l0 -33c0,-16 0,-33 -16,-49 -16,-16 -16,-33 -33,-33 -16,-16 -33,-16 -66,-33 -33,-16 -49,-16 -82,-33 -49,-16 -99,-49 -148,-82 -33,-33 -66,-49 -99,-82 -33,-33 -49,-66 -49,-98 -17,-33 -17,-82 -17,-115 0,-66 17,-115 33,-164 33,-49 66,-98 99,-131 49,-33 99,-66 164,-82 66,-16 132,-33 214,-33l115 0c33,0 66,0 99,16 33,0 49,16 82,16 33,0 49,16 66,16l0 328c-17,-16 -33,-16 -66,-33 -16,-16 -49,-16 -82,-33 -33,-16 -49,-16 -82,-16l-99 0c-49,0 -82,0 -99,16 -33,16 -33,33 -33,66 0,16 0,33 16,33 0,16 16,16 33,33 17,16 33,16 49,33 16,16 49,16 82,33 49,16 99,49 148,66 49,33 82,49 115,82 33,33 49,66 82,98 16,33 33,82 33,148 -21,22 -32,52 -33,82l0 0zm1003 541l-280 -295c-82,0 -164,-33 -230,-49 -66,-33 -132,-82 -181,-131 -49,-49 -99,-115 -132,-197 -33,-82 -49,-164 -49,-263 0,-98 16,-197 49,-279 33,-82 82,-148 132,-213 49,-66 132,-98 197,-131 82,-33 164,-49 263,-49 99,0 181,16 247,49 74,30 141,75 197,131 49,49 99,131 132,197 33,82 49,164 49,279 0,66 0,148 -33,197 -16,66 -49,115 -82,164 -33,49 -66,98 -115,131 -49,33 -82,66 -148,98l428 361 -444 0 0 0zm1431 -1887l-872 0 0 -1263 378 0 0 968 444 0 0 295 49 0zm-1727 -985c-938,0 -1694,-230 -1694,-509 0,-279 757,-509 1694,-509 938,0 1694,230 1694,509 0,279 -757,509 -1694,509l0 0z"/>
</symbol>
<symbol id="Símbolo5" viewBox="-2355 -853 844 1123">
 <path fill="white" stroke="black" stroke-width="13.9507" stroke-linecap="round" stroke-linejoin="round" d="M-2348 -701l0 811c0,84 187,153 419,153l0 -963 -419 0 0 0z"/>
 <path fill="#0072C6" d="M-1935 263l6 0c231,0 419,-68 419,-153l0 -811 -424 0 0 963 0 0 0 0z"/>
 <path fill="white" d="M-1935 263l6 0c231,0 419,-68 419,-153l0 -811 -424 0 0 963 0 0 0 0z"/>
 <path fill="white" d="M-1511 -701c0,84 -187,153 -419,153 -231,0 -419,-68 -419,-153 0,-84 187,-153 419,-153 231,0 419,68 419,153z"/>
 <path fill="#7FBA00" d="M-1596 -710c0,56 -149,101 -333,101 -184,0 -333,-45 -333,-101 0,-56 149,-101 333,-101 184,0 333,45 333,101z"/>
 <path fill="#B8D432" d="M-1666 -648c44,-17 70,-38 70,-61 0,-56 -149,-101 -333,-101 -184,0 -333,45 -333,101 0,23 26,44 70,61 61,-24 156,-39 263,-39 107,0 202,15 263,39m0 0l0 0 0 0z"/>
 <path fill="white" d="M-2062 -138c0,25 -9,45 -27,59 -18,14 -43,21 -75,21 -27,0 -50,-5 -68,-15l0 -59c21,18 44,27 70,27 12,0 22,-2 28,-7 7,-5 10,-11 10,-20 0,-8 -3,-15 -10,-21 -6,-6 -20,-14 -39,-23 -40,-19 -60,-45 -60,-78 0,-24 9,-43 26,-57 18,-14 41,-22 70,-22 26,0 47,3 64,10l0 55c-18,-12 -38,-19 -61,-19 -11,0 -21,2 -27,7 -6,4 -10,11 -10,19 0,0 0,0 0,0 0,8 3,15 8,21 5,5 16,12 33,20 25,12 42,24 53,36 11,12 16,27 16,45l0 0 0 0zm185 -201c0,31 -7,58 -21,81 -14,23 -34,39 -60,48l77 71 -77 0 -55 -62c-23,-1 -44,-7 -64,-19 -19,-12 -33,-27 -44,-48 -10,-20 -15,-43 -15,-67 0,-27 5,-52 17,-74 11,-22 27,-38 47,-50 20,-12 43,-17 69,-17 24,0 46,6 65,17 19,11 34,27 45,48 11,21 16,44 16,71l0 0 0 0zm-63 3c0,-27 -6,-48 -18,-64 -12,-16 -28,-23 -48,-23 -21,0 -37,8 -49,23 -12,16 -19,37 -19,63 0,26 6,47 18,62 12,16 28,23 48,23 21,0 37,-7 49,-22 12,-15 18,-36 18,-62l0 0 0 0zm264 131l-58 0 0 -125 60 0 0 217 98 0 -99 -92 0 0z"/>
</symbol>
 <g id="Capa_x0020_1">
  <metadata id="CorelCorpID_0Corel-Layer"/>
  <g id="_173323040">
   <path fill="#E0234E" d="M528 0c-6,0 -13,1 -18,3 12,8 18,18 22,30 0,2 1,3 1,4 0,1 0,3 0,4 1,20 -5,23 -10,35 -7,16 -5,32 3,46 1,2 2,3 3,5 -9,-59 40,-67 49,-86 1,-16 -13,-27 -23,-34 -10,-6 -19,-8 -27,-8zm74 13c-1,5 0,4 0,7 0,2 0,4 0,6 0,2 -1,4 -2,6 0,2 -1,4 -2,6 -1,2 -2,3 -3,5 -1,1 -1,2 -2,3 0,1 -1,1 -1,2 -1,2 -2,3 -3,5 -1,1 -3,3 -4,4 0,0 0,0 0,0 -1,1 -3,3 -4,4 -5,4 -10,6 -16,10 -2,1 -3,2 -5,3 -2,1 -3,2 -4,4 -2,1 -3,3 -4,4 -1,1 -3,3 -3,5 -1,2 -2,3 -3,5 -1,2 -2,3 -3,5 -1,2 -1,3 -2,5 -1,2 -1,4 -2,6 0,1 0,2 0,3 0,1 0,2 0,3 0,2 0,4 0,6 0,1 0,3 0,4 0,2 0,4 1,6 0,2 1,4 1,6 1,2 1,4 2,6 0,1 1,2 2,3l-53 -21c-9,-3 -18,-5 -27,-7 -5,-1 -10,-2 -15,-3 -14,-3 -28,-5 -42,-6 0,0 -1,0 -1,0 -14,-1 -28,-2 -41,-2 -10,0 -20,0 -30,1 -14,1 -28,3 -42,5 -3,0 -7,1 -10,2 -7,1 -14,3 -21,5 -3,1 -7,2 -10,3 -3,1 -7,3 -10,4 -3,1 -5,2 -8,3 0,0 -1,0 -1,0 -2,1 -4,2 -6,3 -1,0 -1,0 -2,1 -3,1 -5,3 -7,4 -2,1 -3,2 -5,2 -1,0 -2,1 -2,1 -2,1 -4,2 -6,3 -2,1 -4,2 -6,3 -2,1 -3,2 -5,3 0,0 0,0 -1,0 -1,1 -3,2 -4,3 0,0 0,0 0,0 -1,1 -2,2 -3,3 0,0 -1,1 -1,1 -1,1 -2,2 -3,3 0,0 -1,1 -1,1 -1,1 -3,3 -4,4 0,0 0,0 0,0 -1,1 -3,3 -4,4 0,0 0,0 0,0 -1,1 -2,2 -3,4 0,0 -1,1 -2,1 -1,1 -3,3 -4,4 0,0 -1,1 -1,1 -2,2 -3,4 -5,6 0,0 0,0 -1,1 -4,4 -8,8 -12,11 -4,4 -9,7 -13,10 -5,3 -9,6 -14,9 -5,3 -9,5 -15,7 -5,2 -10,4 -15,6 -10,2 -20,6 -28,7 -2,0 -4,0 -6,1 -2,0 -4,1 -6,1 -2,1 -4,1 -6,2 -2,1 -4,2 -6,3 -2,1 -3,2 -5,3 -2,1 -3,3 -5,4 -2,1 -3,3 -5,4 -1,2 -3,3 -4,5 -1,2 -3,3 -3,5 -1,2 -2,3 -3,5 -1,2 -2,4 -3,6 -1,2 -1,4 -2,6 0,2 -1,4 -1,6 0,0 0,0 0,1 0,2 0,5 -1,6 0,2 0,3 0,5 0,1 0,2 0,3 0,2 0,3 1,4 0,1 1,3 2,4 0,0 0,0 0,0 1,1 2,3 3,4 1,1 2,3 3,4 1,1 3,3 4,4 1,1 3,3 4,4 6,5 7,6 14,10 1,1 2,1 4,2 0,0 0,0 1,0 0,0 0,1 0,1 0,2 1,4 1,6 0,2 1,4 2,6 1,1 1,3 2,4 0,0 0,1 1,1 1,2 2,3 3,5 1,2 2,3 3,5 1,1 3,3 4,4 1,1 3,3 4,4 0,0 0,0 0,0 1,1 3,2 4,3 2,1 3,2 5,3 2,1 3,2 5,3 1,1 3,1 5,2 0,0 0,0 1,0 1,0 2,0 3,1 -1,13 -1,24 1,28 2,5 12,-9 22,-26 -1,16 -2,35 0,40 3,6 16,-12 28,-32 164,-38 314,76 330,236 -3,-25 -34,-39 -48,-35 -7,17 -19,39 -38,53 2,-15 1,-31 -2,-46 -5,21 -15,41 -29,58 -22,2 -44,-9 -56,-25 -1,-1 -1,-2 -2,-3 -1,-2 -1,-3 -2,-5 -1,-2 -1,-3 -1,-5 0,-2 0,-3 0,-5 0,-1 0,-2 0,-3 0,-2 1,-3 1,-5 0,-2 1,-3 2,-5 1,-2 2,-3 3,-5 4,-11 4,-20 -3,-25 -1,-1 -3,-2 -4,-2 -1,0 -2,-1 -3,-1 -1,0 -1,0 -2,-1 -2,0 -3,-1 -5,-1 -2,0 -3,-1 -5,-1 -2,0 -3,0 -5,0 -1,0 -2,0 -3,0 -2,0 -3,0 -5,1 -2,0 -3,0 -5,1 -2,0 -3,1 -5,2 -2,1 -3,1 -5,2 -1,1 -3,2 -4,2 -54,35 -22,118 15,142 -14,3 -28,6 -32,9 0,0 0,0 0,0 10,6 20,11 31,16 15,5 31,9 38,11 0,0 0,0 0,0 19,4 39,5 58,4 103,-7 187,-85 202,-188 0,2 1,4 1,6 1,4 2,9 2,13 0,0 0,0 0,0 0,2 1,4 1,6 0,0 0,1 0,1 0,2 0,4 0,6 0,3 0,5 0,8 0,1 0,2 0,4 0,1 0,3 0,4 0,1 0,3 0,4 0,1 0,2 0,3 0,2 0,3 0,5 0,1 0,2 0,3 0,2 0,3 0,5 0,1 0,1 0,2 0,2 0,3 -1,5 0,1 0,1 0,2 0,2 -1,4 -1,7 0,0 0,0 0,0l0 0c0,2 -1,4 -1,6 0,0 0,0 0,1 0,2 -1,4 -1,6 0,0 0,1 0,1 0,2 -1,4 -2,6 0,0 0,0 0,1 -1,2 -1,4 -2,6 0,0 0,0 0,0 -1,2 -1,5 -2,7 -1,2 -2,4 -3,7 -1,2 -2,5 -3,7 -1,2 -2,4 -3,7 0,0 0,0 0,0 -1,2 -2,4 -3,6 0,0 0,0 0,0 0,0 0,0 0,0 0,1 0,1 -1,2 0,0 0,0 0,1 -15,30 -37,57 -65,78 -2,1 -4,3 -6,4 0,0 0,0 0,0 0,0 -1,1 -2,1 -2,1 -3,2 -5,3l1 1 0 0c3,0 6,-1 10,-1l0 0c6,-1 12,-2 18,-3 2,0 3,-1 5,-1 1,0 2,0 3,-1 2,0 3,-1 5,-1 1,0 3,-1 4,-1 23,-6 46,-13 67,-22 -37,50 -86,91 -144,117 27,-2 53,-6 79,-14 93,-28 172,-90 219,-175 -9,54 -31,104 -62,149 22,-15 43,-32 62,-51 52,-54 86,-123 98,-197 8,37 10,74 7,112 167,-233 14,-475 -50,-539 0,0 0,-1 0,-1 0,0 0,0 0,0 0,0 0,0 0,0 0,3 0,6 0,8 -1,5 -1,10 -2,16 -1,5 -3,10 -4,15 -2,5 -3,10 -6,15 -2,5 -4,9 -7,14 -3,4 -5,9 -8,13 -3,4 -6,9 -9,13 -3,4 -7,8 -11,12 -2,2 -4,4 -7,6 -2,2 -3,3 -5,5 -4,3 -8,6 -13,9 -4,3 -9,6 -14,8 -5,2 -10,4 -15,6 -5,2 -10,3 -15,5 -5,1 -10,3 -16,3 -5,1 -11,1 -16,2 -4,0 -7,0 -11,0 -5,0 -11,0 -16,-1 -5,0 -11,-1 -16,-2 -5,-1 -10,-2 -16,-4l0 0c5,0 10,-1 15,-2 5,-1 10,-2 16,-3 5,-1 10,-3 15,-5 5,-2 10,-4 15,-6 5,-2 9,-5 14,-8 4,-3 9,-6 13,-9 4,-3 8,-7 12,-10 4,-3 7,-7 11,-11 3,-4 7,-8 10,-13 0,-1 1,-2 1,-2 2,-4 5,-7 7,-11 3,-5 5,-9 7,-14 2,-5 4,-10 6,-15 2,-5 3,-10 4,-15 1,-5 2,-10 2,-16 0,-5 1,-11 1,-16 0,-4 0,-7 0,-11 0,-5 -1,-10 -2,-16 -1,-5 -2,-10 -3,-16 -2,-5 -3,-10 -5,-15 -2,-5 -4,-10 -6,-14 -3,-5 -5,-9 -8,-14 -3,-4 -6,-9 -9,-13 -3,-4 -7,-8 -11,-12 -2,-2 -4,-4 -6,-6 -10,-8 -21,-16 -32,-23 -2,-1 -3,-2 -5,-2 -8,-5 -15,-7 -22,-10l0 0z"/>
  </g>
  <polygon fill="#FEFEFE" fill-rule="nonzero" points="235,1115 235,1014 249,1014 302,1093 302,1014 315,1014 315,1115 301,1115 248,1036 248,1115 "/>
  <path id="1" fill="#FEFEFE" fill-rule="nonzero" d="M386 1092l13 2c-2,8 -6,13 -11,17 -5,4 -12,6 -21,6 -11,0 -19,-3 -25,-10 -6,-7 -9,-16 -9,-28 0,-12 3,-22 10,-29 6,-7 15,-10 25,-10 10,0 18,3 24,10 6,7 9,16 9,28 0,1 0,2 0,3l-55 0c0,8 3,14 7,18 4,4 9,6 15,6 5,0 8,-1 12,-4 3,-2 6,-6 8,-11zm-41 -20l41 0c-1,-6 -2,-11 -5,-14 -4,-5 -9,-7 -15,-7 -6,0 -11,2 -14,6 -4,4 -6,9 -6,15z"/>
  <path id="12" fill="#FEFEFE" fill-rule="nonzero" d="M409 1093l12 -2c1,5 3,9 6,11 3,3 8,4 13,4 6,0 10,-1 13,-3 3,-2 4,-5 4,-8 0,-3 -1,-5 -4,-7 -2,-1 -6,-2 -13,-4 -9,-2 -15,-4 -19,-6 -4,-2 -6,-4 -8,-7 -2,-3 -3,-6 -3,-10 0,-3 1,-6 2,-9 1,-3 4,-5 6,-7 2,-1 5,-3 8,-4 3,-1 7,-1 11,-1 6,0 11,1 15,2 4,2 8,4 10,7 2,3 3,7 4,11l-12 2c-1,-4 -2,-7 -5,-9 -3,-2 -6,-3 -11,-3 -6,0 -10,1 -12,3 -2,2 -4,4 -4,7 0,2 1,3 2,4 1,1 3,2 5,3 1,0 5,2 11,3 9,2 15,4 18,6 3,1 6,4 8,7 2,3 3,6 3,11 0,4 -1,8 -4,12 -2,4 -6,6 -10,8 -5,2 -10,3 -15,3 -10,0 -17,-2 -22,-6 -5,-4 -8,-10 -10,-18z"/>
  <path id="123" fill="#FEFEFE" fill-rule="nonzero" d="M512 1104l2 11c-3,1 -7,1 -9,1 -5,0 -8,-1 -11,-2 -2,-1 -4,-3 -5,-6 -1,-2 -2,-7 -2,-15l0 -42 -9 0 0 -10 9 0 0 -18 12 -7 0 26 12 0 0 10 -12 0 0 43c0,4 0,6 1,7 0,1 1,2 2,2 1,1 2,1 4,1 1,0 3,0 5,0z"/>
  <path id="1234" fill="#FEFEFE" fill-rule="nonzero" d="M519 1086l12 -2c0,8 2,13 4,16 3,3 6,4 11,4 3,0 6,-1 9,-2 2,-2 4,-4 5,-6 1,-3 1,-7 1,-13l0 -70 13 0 0 69c0,8 -1,15 -3,20 -2,5 -5,8 -10,11 -4,2 -10,4 -16,4 -9,0 -16,-3 -20,-8 -5,-5 -7,-13 -7,-23z"/>
  <path id="12345" fill="#FEFEFE" fill-rule="nonzero" d="M592 1083l13 -1c1,5 2,9 4,12 2,3 6,6 10,8 5,2 10,3 16,3 5,0 10,-1 14,-2 4,-2 7,-4 9,-6 2,-3 3,-6 3,-9 0,-3 -1,-6 -3,-8 -2,-2 -5,-4 -9,-6 -3,-1 -9,-3 -18,-5 -9,-2 -16,-4 -20,-6 -5,-3 -8,-6 -11,-9 -2,-4 -4,-8 -4,-13 0,-5 1,-10 4,-14 3,-4 7,-8 13,-10 6,-2 12,-3 19,-3 8,0 14,1 20,4 6,2 10,6 13,11 3,5 5,10 5,16l-13 1c-1,-6 -3,-11 -7,-14 -4,-3 -10,-5 -18,-5 -8,0 -14,1 -18,4 -4,3 -6,7 -6,11 0,4 1,7 4,9 3,2 9,5 20,7 11,2 18,5 22,6 6,3 10,6 13,10 3,4 4,9 4,14 0,5 -2,10 -5,15 -3,5 -8,8 -13,11 -6,3 -12,4 -19,4 -9,0 -17,-1 -23,-4 -6,-3 -11,-7 -15,-12 -4,-5 -5,-11 -6,-18z"/>
 </g>
</svg>
